<svg width="1781" height="413" viewBox="0 0 1781 413" fill="none" xmlns="http://www.w3.org/2000/svg">
<g filter="url(#filter0_n_293_33)">
<g clip-path="url(#clip0_293_33)">
<rect width="1781" height="413" fill="#2A232D"/>
<g filter="url(#filter1_d_293_33)">
<path d="M594.265 122.539C594.265 126.547 593.521 130.44 592.032 134.22C590.543 137.884 589.455 141.663 588.768 145.557C586.249 148.878 583.901 152.314 581.725 155.864C579.549 159.414 577.316 162.964 575.026 166.514C572.735 170.065 570.33 173.5 567.811 176.821C565.292 180.028 562.429 182.948 559.222 185.582C559.337 185.697 559.394 185.926 559.394 186.269C559.394 186.956 559.05 187.529 558.363 187.987C557.791 188.331 557.619 188.789 557.848 189.361C554.985 192.339 552.179 195.259 549.431 198.122C546.682 200.985 544.163 204.192 541.872 207.742C539.353 209.001 537.291 211.063 535.688 213.926C535.001 213.926 534.486 214.098 534.142 214.441C533.798 214.67 533.34 214.899 532.768 215.128C529.103 219.595 525.267 223.832 521.259 227.84C517.25 231.848 512.956 235.513 508.375 238.834C506.657 240.094 504.939 241.239 503.222 242.27C501.504 243.3 499.843 244.388 498.24 245.533C497.209 246.221 496.179 247.022 495.148 247.938C494.232 248.855 493.258 249.713 492.228 250.515C488.906 253.378 485.643 255.783 482.436 257.73C479.23 259.562 475.45 260.822 471.099 261.509C470.755 262.769 470.583 264.143 470.583 265.632V269.755C470.583 271.129 470.526 272.56 470.411 274.049C470.297 275.423 469.896 276.74 469.209 278V278.515C469.209 279.661 469.495 280.748 470.068 281.779C470.64 282.924 470.927 284.07 470.927 285.215C470.927 286.016 470.526 286.704 469.724 287.276H474.191C474.191 288.879 474.649 290.254 475.565 291.399C476.596 292.544 477.111 293.403 477.111 293.976C477.111 295.922 476.882 298.041 476.424 300.331C476.08 302.736 474.935 304.34 472.988 305.141V306.172C472.988 307.317 472.874 308.405 472.645 309.436C472.416 310.581 471.9 311.669 471.099 312.7C470.411 312.7 469.724 312.7 469.037 312.7C468.465 312.814 467.892 312.871 467.319 312.871C462.51 312.871 458.215 311.726 454.436 309.436C453.176 306.458 452.317 303.366 451.859 300.16C451.516 297.068 451.344 293.918 451.344 290.712C451.344 284.413 451.802 278.172 452.718 271.988C453.634 265.804 454.379 259.619 454.951 253.435L457.528 248.454C457.757 245.247 458.158 242.041 458.73 238.834C459.303 235.513 459.876 232.249 460.448 229.043C461.021 225.836 461.479 222.629 461.822 219.423C462.28 216.216 462.452 213.01 462.338 209.803C463.254 207.856 463.884 205.795 464.227 203.619C464.685 201.443 464.914 199.324 464.914 197.263C464.914 196.118 464.857 194.973 464.743 193.828C464.628 192.682 464.285 191.594 463.712 190.564C464.399 190.106 464.857 189.533 465.086 188.846C465.315 188.159 465.659 187.529 466.117 186.956C466.46 182.49 466.747 178.081 466.976 173.729C467.205 169.263 467.319 164.854 467.319 160.502C467.319 158.097 467.262 155.749 467.148 153.459C467.033 151.054 466.861 148.649 466.632 146.244C466.518 145.328 466.289 144.24 465.945 142.98C465.716 141.721 465.602 140.747 465.602 140.06C465.602 139.144 465.659 138.228 465.773 137.312C465.888 136.281 465.945 135.25 465.945 134.22C465.945 133.074 465.831 131.986 465.602 130.956C465.373 129.811 464.972 128.78 464.399 127.864C458.902 129.467 453.978 131.643 449.626 134.391C445.274 137.025 440.865 140.003 436.399 143.324C434.567 144.584 432.562 146.072 430.387 147.79C428.211 149.508 426.149 150.825 424.202 151.741C423.859 151.97 423.458 152.142 423 152.257C422.427 152.257 421.969 152.257 421.626 152.257C420.366 152.257 419.221 152.199 418.19 152.085C417.159 151.856 416.129 151.741 415.098 151.741C413.495 150.138 411.605 148.878 409.429 147.962C409.086 146.588 408.914 145.099 408.914 143.496C408.914 141.893 409.086 140.346 409.429 138.858C409.658 137.369 410.059 135.88 410.632 134.391C412.006 133.933 413.495 133.418 415.098 132.845C416.587 132.273 418.076 131.643 419.564 130.956C420.939 130.154 422.198 129.295 423.344 128.379C424.489 127.348 425.405 126.089 426.092 124.6C426.779 124.943 427.409 125.115 427.982 125.115C428.554 125.115 429.07 125.058 429.528 124.943C429.986 124.829 430.501 124.714 431.074 124.6C433.135 123.34 435.196 122.023 437.258 120.649C439.434 119.275 441.667 118.13 443.957 117.213C444.644 116.984 445.045 116.698 445.16 116.354C445.274 116.011 445.274 115.496 445.16 114.808C447.794 114.007 450.542 113.091 453.405 112.06C456.268 110.915 458.673 109.369 460.62 107.422H463.712C465.43 106.162 467.262 105.131 469.209 104.33C471.156 103.528 473.103 102.784 475.05 102.097C477.111 101.295 479.115 100.493 481.062 99.6917C483.009 98.7756 484.841 97.6304 486.559 96.2561C487.246 96.0271 487.819 95.9126 488.277 95.9126C488.849 95.9126 489.479 96.0271 490.166 96.2561C491.311 95.6835 492.285 94.9964 493.086 94.1948L495.835 91.4463C497.667 91.4463 499.328 91.2745 500.817 90.9309C502.305 90.5874 503.737 90.1293 505.111 89.5567C506.485 88.9841 507.802 88.3542 509.062 87.6671C510.436 86.8655 511.925 86.0638 513.528 85.2622C514.215 85.4912 514.731 85.7775 515.074 86.1211C515.418 86.3501 515.991 86.4646 516.792 86.4646C517.937 85.663 519.14 85.0904 520.4 84.7468C521.774 84.2887 523.148 83.9452 524.522 83.7161C525.897 83.4871 527.214 83.2008 528.473 82.8572C529.848 82.5137 531.05 81.8838 532.081 80.9677C535.745 80.9677 539.41 80.9104 543.075 80.7959C546.854 80.5668 550.576 80.4523 554.24 80.4523C559.508 80.4523 564.834 80.8531 570.216 81.6548C575.713 82.4564 580.637 84.4605 584.989 87.6671C586.707 91.7898 589.169 95.2827 592.376 98.1457C592.605 99.4054 592.834 100.608 593.063 101.753C593.406 102.784 593.807 103.814 594.265 104.845C593.464 106.563 593.063 108.453 593.063 110.514C593.063 112.575 593.235 114.637 593.578 116.698C594.036 118.645 594.265 120.592 594.265 122.539ZM578.29 118.416C577.717 117.385 577.316 116.24 577.087 114.98C576.973 113.606 576.973 112.289 577.087 111.029C575.598 109.884 574.453 108.395 573.652 106.563C572.85 104.731 571.705 103.356 570.216 102.44C569.185 101.868 567.697 101.524 565.75 101.41C563.917 101.295 562.371 101.066 561.112 100.722C559.623 100.264 558.592 99.8063 558.02 99.3482C557.561 98.8901 556.531 98.6611 554.928 98.6611C553.553 98.6611 552.179 98.8328 550.805 99.1764C549.431 99.4054 548.056 99.52 546.682 99.52C545.537 99.52 544.449 99.2909 543.418 98.8328C542.388 98.3748 541.3 98.1457 540.154 98.1457C538.895 98.1457 537.692 98.5465 536.547 99.3482C535.516 100.15 534.257 100.379 532.768 100.035C532.081 100.608 531.68 101.066 531.565 101.41C531.565 101.753 531.508 102.039 531.394 102.268C531.279 102.383 530.993 102.44 530.535 102.44H528.13C525.725 102.44 523.263 102.784 520.743 103.471C518.338 104.158 516.162 105.303 514.215 106.907C513.872 106.792 513.528 106.735 513.185 106.735C512.956 106.62 512.669 106.563 512.326 106.563C510.379 106.563 508.489 107.136 506.657 108.281C504.939 109.311 502.992 109.827 500.817 109.827C499.442 111.201 497.782 112.289 495.835 113.091C493.888 113.892 491.884 114.694 489.823 115.496C487.876 116.183 486.043 117.042 484.326 118.072C482.608 118.988 481.291 120.363 480.375 122.195C480.26 123.111 480.547 123.684 481.234 123.913C481.921 124.142 482.264 124.714 482.264 125.631C482.264 126.432 482.093 127.406 481.749 128.551C481.52 129.696 481.405 130.841 481.405 131.986C481.405 134.62 481.692 137.197 482.264 139.717C482.837 142.236 483.41 144.813 483.982 147.447C483.41 147.79 483.009 148.306 482.78 148.993C482.551 149.68 482.15 150.195 481.577 150.539C483.18 155.349 483.982 160.273 483.982 165.312C483.982 169.32 483.524 173.271 482.608 177.165C481.806 180.944 481.234 184.838 480.89 188.846V189.018C480.89 189.705 481.119 190.163 481.577 190.392C482.035 190.621 482.264 191.022 482.264 191.594C482.264 191.938 482.207 192.224 482.093 192.453C480.833 200.241 479.573 208.028 478.313 215.815C477.168 223.603 476.195 231.447 475.393 239.349H476.767C479.745 239.349 482.379 238.49 484.669 236.773C487.074 234.94 489.078 232.936 490.682 230.76H493.43C501.676 223.546 509.577 216.102 517.136 208.429C524.809 200.756 532.081 192.511 538.952 183.692C539.868 183.692 540.498 183.463 540.841 183.005C541.185 182.547 541.758 182.204 542.559 181.975C544.964 178.654 547.484 175.39 550.118 172.183C552.752 168.862 555.615 165.713 558.707 162.735C558.821 161.59 559.107 160.559 559.566 159.643C560.138 158.727 560.711 157.868 561.283 157.066C561.856 156.265 562.371 155.406 562.829 154.49C563.287 153.574 563.517 152.486 563.517 151.226C564.089 150.997 564.719 150.768 565.406 150.539C566.093 150.195 566.723 149.737 567.296 149.165C567.525 148.019 567.926 146.989 568.498 146.072C569.071 145.156 569.357 144.126 569.357 142.98C569.357 142.522 569.243 141.95 569.014 141.263C570.846 140.461 572.277 139.144 573.308 137.312C574.339 135.479 575.14 133.475 575.713 131.299C576.286 129.009 576.686 126.719 576.915 124.428C577.259 122.138 577.717 120.134 578.29 118.416ZM689.603 178.539C688.916 179.57 688.516 180.715 688.401 181.975C688.287 183.234 688.229 184.38 688.229 185.41C688.229 186.785 688.229 188.159 688.229 189.533C688.344 190.793 688.401 192.052 688.401 193.312V195.889C688.172 196.691 687.828 197.492 687.37 198.294C686.912 199.095 686.569 199.897 686.34 200.699C684.736 204.936 683.935 209.173 683.935 213.41V213.754C683.362 215.128 682.79 216.388 682.217 217.533C681.759 218.678 681.301 219.824 680.843 220.969C680.385 222 680.041 223.145 679.812 224.404C679.583 225.55 679.526 226.924 679.64 228.527C678.037 232.535 675.918 236.2 673.284 239.521C670.65 242.728 668.074 246.049 665.554 249.484C663.149 250.401 660.916 251.603 658.855 253.092C656.908 254.581 655.018 256.241 653.186 258.073C649.636 259.219 646.143 260.536 642.707 262.024C639.272 263.513 636.18 265.517 633.431 268.037C631.255 268.266 629.079 268.609 626.904 269.067C624.728 269.525 622.609 270.213 620.548 271.129H618.486C617.456 271.129 616.711 270.9 616.253 270.442C614.764 271.243 613.218 271.816 611.615 272.159C610.012 272.389 608.409 272.503 606.805 272.503C604.744 272.503 602.683 272.389 600.621 272.159C598.674 271.816 596.67 271.472 594.609 271.129C593.464 269.525 591.86 268.323 589.799 267.521C587.738 266.605 585.905 265.746 584.302 264.945C580.981 260.364 578.576 255.955 577.087 251.718C575.598 247.366 574.052 242.499 572.449 237.116C572.678 235.513 573.079 233.967 573.652 232.478C574.224 230.875 574.453 229.157 574.339 227.325C576.4 221.37 579.091 215.987 582.412 211.177C585.848 206.253 589.742 201.558 594.093 197.091C594.093 196.404 594.208 195.832 594.437 195.374C594.781 194.915 594.838 194.228 594.609 193.312C594.723 193.427 594.952 193.484 595.296 193.484C596.212 193.484 596.785 193.255 597.014 192.797C597.243 192.224 597.3 191.594 597.186 190.907C601.308 188.273 605.03 185.238 608.351 181.803C611.787 178.367 615.681 175.504 620.032 173.214C620.376 172.183 620.949 171.324 621.75 170.637C622.552 169.95 623.182 169.148 623.64 168.232C627.304 167.202 630.625 165.655 633.603 163.594C636.581 161.533 639.73 159.7 643.051 158.097C644.883 157.066 646.601 156.379 648.204 156.036C649.922 155.578 651.755 155.12 653.701 154.662C654.388 154.432 655.018 154.261 655.591 154.146C656.164 154.032 656.793 153.974 657.481 153.974C659.542 153.974 661.546 154.375 663.493 155.177C665.44 155.864 667.444 156.208 669.505 156.208C670.078 156.208 670.536 156.208 670.879 156.208C671.337 156.093 671.796 155.979 672.254 155.864C674.2 158.269 676.663 160.101 679.64 161.361C680.327 163.079 681.129 164.568 682.045 165.827C683.076 167.087 684.107 168.347 685.137 169.606C686.168 170.752 687.084 172.069 687.886 173.557C688.802 174.932 689.374 176.592 689.603 178.539ZM672.425 187.472C672.425 186.899 672.368 186.384 672.254 185.926C671.108 185.582 670.021 185.124 668.99 184.551C667.959 183.979 666.814 183.692 665.554 183.692C664.753 183.692 663.951 183.864 663.149 184.208C663.035 183.406 662.691 182.834 662.119 182.49C661.661 182.146 661.088 181.86 660.401 181.631C659.828 181.288 659.198 181.058 658.511 180.944C657.939 180.715 657.423 180.371 656.965 179.913C656.622 178.997 656.221 178.081 655.763 177.165C655.419 176.134 654.732 175.39 653.701 174.932C652.671 175.962 651.468 176.821 650.094 177.508C648.72 178.081 647.288 178.654 645.799 179.226C644.425 179.799 643.051 180.486 641.677 181.288C640.417 182.089 639.329 183.063 638.413 184.208H635.321C634.634 185.468 633.66 186.441 632.401 187.128C631.141 187.701 630.053 188.56 629.137 189.705C627.304 190.621 625.587 191.766 623.983 193.14C622.495 194.4 621.006 195.774 619.517 197.263C618.028 198.637 616.539 200.069 615.051 201.558C613.676 203.046 612.188 204.421 610.584 205.68C609.096 208.887 607.435 211.693 605.603 214.098C603.885 216.388 602.224 218.736 600.621 221.141C599.132 223.546 597.815 226.18 596.67 229.043C595.64 231.791 595.124 235.227 595.124 239.349V241.067C595.124 241.64 595.181 242.212 595.296 242.785C596.785 244.388 597.987 246.106 598.903 247.938C599.934 249.771 601.595 251.088 603.885 251.889C606.175 252.806 608.58 253.206 611.1 253.092C613.734 252.977 616.253 253.264 618.658 253.951C624.155 252.92 629.423 251.259 634.462 248.969C639.615 246.564 644.482 243.701 649.063 240.38C649.75 239.807 650.552 239.235 651.468 238.662C652.384 237.975 653.129 237.288 653.701 236.601C654.274 236.028 654.732 235.398 655.076 234.711C655.534 234.024 655.992 233.394 656.45 232.822C657.366 231.333 658.397 229.844 659.542 228.355C660.687 226.867 661.89 225.492 663.149 224.233C663.722 221.713 664.466 219.308 665.382 217.018C666.299 214.613 667.215 212.265 668.131 209.975C669.047 207.684 669.791 205.337 670.364 202.932C671.051 200.527 671.395 198.008 671.395 195.374C671.395 194.801 671.337 194.171 671.223 193.484C671.223 192.797 671.166 192.167 671.051 191.594C671.967 190.335 672.425 188.96 672.425 187.472ZM795.077 233.852C795.077 235.112 794.619 236.086 793.703 236.773C792.786 237.345 792.328 238.147 792.328 239.178C792.328 239.636 792.557 240.208 793.015 240.895C791.412 240.895 790.324 241.411 789.752 242.441C789.179 243.472 788.606 244.617 788.034 245.877H785.801C785.228 245.877 784.77 245.992 784.426 246.221C784.083 246.45 783.739 246.793 783.396 247.251C783.167 247.595 782.823 248.167 782.365 248.969C780.189 249.427 778.071 250.172 776.009 251.202C774.062 252.118 772.115 253.149 770.169 254.294C768.336 255.325 766.447 256.413 764.5 257.558C762.553 258.589 760.549 259.448 758.488 260.135C757.457 261.853 755.968 263.227 754.021 264.258H753.506C752.933 264.372 752.418 264.315 751.96 264.086C751.616 263.742 751.158 263.57 750.586 263.57C750.242 263.57 750.013 263.628 749.898 263.742C746.463 266.033 742.626 267.178 738.389 267.178C737.244 267.178 736.156 267.121 735.125 267.006C734.095 266.777 733.007 266.662 731.862 266.662C731.518 266.662 731.289 266.777 731.174 267.006L730.831 267.693C730.716 267.922 730.545 268.151 730.315 268.38C730.201 268.609 729.8 268.724 729.113 268.724C727.853 268.724 726.594 268.552 725.334 268.209C724.074 267.865 722.757 267.808 721.383 268.037C718.749 266.548 716.688 265.116 715.199 263.742C713.71 262.368 712.336 260.307 711.076 257.558C710.503 256.298 709.702 255.096 708.671 253.951C707.755 252.806 707.068 251.546 706.61 250.172C706.495 249.713 706.323 248.912 706.094 247.767C705.865 246.507 705.636 245.19 705.407 243.816C705.178 242.441 704.949 241.124 704.72 239.865C704.606 238.605 704.548 237.746 704.548 237.288C704.548 235.914 704.606 234.597 704.72 233.337C704.949 231.963 705.178 230.589 705.407 229.214C706.094 224.863 706.553 220.511 706.782 216.159C707.125 211.693 708.099 207.398 709.702 203.275C709.473 202.016 709.358 200.813 709.358 199.668V195.889C709.358 193.713 709.072 191.881 708.499 190.392C709.416 188.903 709.874 187.243 709.874 185.41C709.874 183.349 709.015 182.146 707.297 181.803V181.288C707.297 178.883 706.495 176.993 704.892 175.619C704.892 171.611 705.865 168.633 707.812 166.686C709.874 164.625 712.565 162.85 715.886 161.361C716.344 160.674 716.516 160.101 716.401 159.643C717.203 159.872 717.947 160.101 718.634 160.33C719.322 160.559 720.009 160.674 720.696 160.674C721.841 160.674 722.872 160.502 723.788 160.159C724.131 161.533 724.99 162.392 726.365 162.735C727.853 162.964 729.056 163.308 729.972 163.766V165.999C729.972 169.549 730.831 172.928 732.549 176.134C732.091 177.05 731.804 178.024 731.69 179.054C731.575 180.085 731.518 181.058 731.518 181.975C731.518 183.349 731.575 184.723 731.69 186.097C731.804 187.472 731.862 188.789 731.862 190.048C731.862 191.423 731.69 192.797 731.346 194.171C731.117 195.545 730.487 196.748 729.457 197.778C729.342 199.267 729.228 200.985 729.113 202.932C729.113 204.764 728.999 206.654 728.769 208.601C728.655 210.547 728.369 212.437 727.911 214.269C727.452 216.102 726.765 217.59 725.849 218.736C725.735 220.453 725.62 222.229 725.506 224.061C725.506 225.779 725.506 227.439 725.506 229.043C725.506 231.562 725.62 234.54 725.849 237.975C726.193 241.411 726.994 244.274 728.254 246.564C728.827 247.48 729.915 248.167 731.518 248.626C733.236 249.084 734.61 249.313 735.641 249.313C736.9 249.313 738.16 249.141 739.42 248.797C740.794 248.339 741.768 247.595 742.34 246.564C743.027 246.679 743.485 247.022 743.714 247.595C743.943 248.167 744.344 248.626 744.917 248.969C751.445 246.221 757.972 243.587 764.5 241.067C771.027 238.548 777.441 235.627 783.739 232.306C784.655 232.764 785.629 232.993 786.66 232.993C787.805 232.993 788.95 232.879 790.095 232.65C791.24 232.421 792.386 232.306 793.531 232.306H794.733C794.962 232.993 795.077 233.509 795.077 233.852ZM921.679 265.46C921.336 267.063 920.591 268.38 919.446 269.411C918.415 270.327 917.156 271.072 915.667 271.644C914.178 272.217 912.632 272.618 911.029 272.847C909.54 272.961 908.166 273.018 906.906 273.018C906.333 273.018 905.761 273.018 905.188 273.018C904.73 272.904 904.215 272.847 903.642 272.847C903.07 272.847 902.783 273.133 902.783 273.705C902.783 274.278 902.497 274.679 901.924 274.908C901.352 274.679 900.779 274.507 900.207 274.393C899.634 274.278 899.061 274.221 898.489 274.221C897.687 274.221 896.885 274.278 896.084 274.393C895.397 274.507 894.71 274.564 894.022 274.564C893.106 274.564 892.419 274.45 891.961 274.221C891.617 273.992 891.274 273.763 890.93 273.534C890.701 273.19 890.415 272.847 890.071 272.503C889.842 272.159 889.442 271.873 888.869 271.644C888.067 271.301 887.38 271.243 886.808 271.472C886.35 271.701 885.605 271.358 884.574 270.442C883.2 269.296 881.998 267.922 880.967 266.319C880.051 264.601 879.135 262.826 878.219 260.994C877.302 259.161 876.329 257.329 875.298 255.497C874.268 253.664 873.065 252.061 871.691 250.687H870.317C868.255 250.687 866.824 251.546 866.022 253.264C865.45 252.92 864.877 252.519 864.304 252.061C863.732 251.489 863.102 251.03 862.415 250.687C859.781 251.489 857.032 252.176 854.169 252.748C851.306 253.321 848.443 253.607 845.58 253.607H843.175C842.488 253.607 841.744 253.493 840.942 253.264C839.797 253.722 838.766 254.294 837.85 254.981C836.934 255.554 835.903 255.84 834.758 255.84C834.071 255.84 833.269 255.611 832.353 255.153C831.666 255.153 831.322 255.439 831.322 256.012C831.437 256.585 831.093 256.871 830.292 256.871H828.746C827.142 256.871 825.539 256.928 823.936 257.043C822.447 257.157 820.901 257.215 819.298 257.215C817.122 257.215 814.889 256.928 812.598 256.356C812.026 256.699 811.396 256.871 810.709 256.871C810.251 257.1 809.907 257.501 809.678 258.073C809.449 258.532 809.22 258.99 808.991 259.448C808.762 259.791 808.418 260.135 807.96 260.478C807.617 260.707 807.101 260.765 806.414 260.65C806.185 262.024 805.613 263.112 804.697 263.914C803.78 264.716 803.322 265.918 803.322 267.521C802.063 268.209 801.032 269.067 800.23 270.098C799.429 271.129 798.627 272.217 797.825 273.362C797.024 274.507 796.165 275.595 795.249 276.626C794.447 277.656 793.416 278.458 792.157 279.031C791.584 279.718 791.412 280.806 791.641 282.295C790.381 283.325 788.835 284.241 787.003 285.043C785.171 285.845 783.453 286.245 781.85 286.245C778.529 286.245 776.238 284.47 774.978 280.92C774.978 279.775 775.093 278.573 775.322 277.313C775.437 275.939 775.666 274.679 776.009 273.534C776.353 272.274 776.868 271.186 777.555 270.27C778.242 269.239 779.216 268.495 780.475 268.037C780.475 267.006 780.132 266.319 779.445 265.975C778.758 265.517 778.471 264.773 778.586 263.742C781.678 262.253 784.369 260.307 786.66 257.902C788.95 255.497 791.011 252.977 792.844 250.343C794.79 247.595 796.737 244.846 798.684 242.098C800.631 239.349 802.807 236.887 805.212 234.711V231.104C808.647 227.439 810.881 223.317 811.911 218.736C813.171 218.507 813.973 217.934 814.316 217.018C814.774 216.102 815.003 215.014 815.003 213.754C815.576 213.754 815.919 213.525 816.034 213.067C816.263 212.494 816.778 212.323 817.58 212.552C818.611 209.803 819.756 207.284 821.016 204.993C822.275 202.703 823.535 200.412 824.795 198.122C826.055 195.717 827.142 193.255 828.059 190.735C829.089 188.216 829.834 185.41 830.292 182.318C831.895 182.204 832.754 181.459 832.869 180.085C833.098 178.596 833.327 177.279 833.556 176.134C835.273 174.531 836.533 172.641 837.335 170.465C838.251 168.289 839.053 166.056 839.74 163.766C840.427 161.361 841.171 159.013 841.973 156.723C842.889 154.318 844.149 152.199 845.752 150.367V149.852C845.752 149.279 845.523 148.936 845.065 148.821C844.607 148.592 844.378 148.191 844.378 147.619C844.492 147.504 844.55 147.389 844.55 147.275C845.924 146.702 846.955 145.786 847.642 144.526C848.329 143.152 849.359 142.179 850.734 141.606C853.139 143.553 855.257 144.756 857.09 145.214C858.922 145.557 861.327 145.843 864.304 146.072C865.793 147.676 866.595 149.623 866.709 151.913C866.938 154.089 867.339 156.265 867.912 158.441C868.828 162.105 869.801 165.713 870.832 169.263C871.977 172.698 872.836 176.249 873.409 179.913C873.752 182.089 874.382 184.151 875.298 186.097C876.214 188.044 876.844 190.048 877.188 192.11C877.417 193.713 877.417 195.545 877.188 197.607C876.959 199.554 877.188 201.271 877.875 202.76L879.078 205.509C879.65 206.768 880.108 208.085 880.452 209.46C880.91 210.834 881.311 212.208 881.654 213.582C882.57 217.018 883.372 220.74 884.059 224.748C884.861 228.642 886.063 232.192 887.667 235.398C888.239 236.544 889.098 237.345 890.243 237.803C891.503 238.261 892.877 238.605 894.366 238.834C895.855 238.949 897.286 239.006 898.66 239.006C900.149 238.891 901.409 238.834 902.44 238.834H904.157C904.845 238.834 905.532 238.949 906.219 239.178C906.677 240.094 906.906 240.895 906.906 241.583C906.906 242.957 906.448 244.045 905.532 244.846C904.616 245.648 904.157 246.564 904.157 247.595C904.157 248.167 904.387 248.797 904.845 249.484C904.387 249.37 903.699 249.313 902.783 249.313C900.149 249.313 897.573 249.771 895.053 250.687C895.969 252.634 897.172 254.294 898.66 255.669C900.264 256.928 901.924 258.131 903.642 259.276C904.787 258.36 905.99 257.902 907.25 257.902C908.624 257.902 909.883 258.245 911.029 258.932C912.288 259.505 913.605 259.791 914.98 259.791C916.01 259.791 916.755 259.619 917.213 259.276C918.129 260.307 918.873 261.395 919.446 262.54C920.019 263.57 920.763 264.544 921.679 265.46ZM867.912 237.975C867.683 236.028 867.282 234.654 866.709 233.852C866.251 232.936 865.85 231.848 865.507 230.589C865.049 228.985 864.705 227.267 864.476 225.435C864.362 223.603 864.133 221.828 863.789 220.11C862.987 216.216 862.071 212.323 861.041 208.429C860.124 204.535 858.922 200.756 857.433 197.091C857.891 196.404 858.12 195.774 858.12 195.202V194.686C857.09 193.541 856.345 192.167 855.887 190.564C855.429 188.846 854.971 187.185 854.513 185.582C854.169 183.864 853.654 182.318 852.967 180.944C852.394 179.455 851.421 178.253 850.047 177.337C849.703 178.024 849.531 178.825 849.531 179.741C849.531 180.543 849.588 181.288 849.703 181.975C849.932 182.662 850.047 183.406 850.047 184.208C848.901 184.78 848.042 185.697 847.47 186.956C847.012 188.101 846.21 189.018 845.065 189.705C844.149 193.369 842.832 196.862 841.114 200.183C839.396 203.39 837.564 206.597 835.617 209.803C833.785 213.01 832.01 216.274 830.292 219.595C828.574 222.801 827.2 226.18 826.169 229.73C824.68 230.76 823.65 232.077 823.077 233.681C822.619 235.284 822.39 236.887 822.39 238.49C823.421 239.063 824.566 239.407 825.826 239.521C827.2 239.521 828.517 239.521 829.776 239.521C831.036 239.521 832.239 239.636 833.384 239.865C834.529 240.094 835.56 240.666 836.476 241.583C837.965 241.124 839.568 240.838 841.286 240.724C843.118 240.495 844.607 239.979 845.752 239.178C848.042 239.979 850.505 240.38 853.139 240.38C854.513 240.38 855.83 240.266 857.09 240.036C858.464 239.807 859.781 239.521 861.041 239.178C862.071 239.407 862.873 239.807 863.445 240.38C864.018 240.838 864.877 241.01 866.022 240.895C866.595 240.437 866.938 239.979 867.053 239.521C867.167 238.949 867.454 238.433 867.912 237.975ZM1136.58 248.11C1136.35 249.828 1135.72 251.145 1134.69 252.061C1133.77 252.977 1132.68 253.836 1131.42 254.638C1130.85 254.523 1130.28 254.466 1129.71 254.466C1129.25 254.352 1128.73 254.294 1128.16 254.294C1124.61 254.18 1121.23 254.638 1118.02 255.669C1114.93 256.699 1111.73 257.444 1108.4 257.902C1107.26 258.131 1106.17 258.245 1105.14 258.245C1104.22 258.131 1103.25 258.188 1102.22 258.417C1098.56 258.99 1094.66 259.448 1090.54 259.791C1086.42 260.135 1082.29 260.593 1078.17 261.166C1074.05 261.624 1069.98 262.253 1065.97 263.055C1062.08 263.742 1058.42 264.773 1054.98 266.147C1054.64 265.918 1054.29 265.689 1053.95 265.46C1053.61 265.116 1053.21 264.945 1052.75 264.945C1051.6 264.945 1050.51 265.116 1049.48 265.46C1048.45 265.804 1047.42 265.918 1046.39 265.804C1045.25 266.491 1043.99 267.006 1042.61 267.35C1041.35 267.579 1040.04 267.808 1038.66 268.037C1037.4 268.151 1036.14 268.38 1034.88 268.724C1033.62 269.067 1032.42 269.697 1031.28 270.613C1030.36 270.155 1029.21 269.926 1027.84 269.926C1026.58 269.812 1025.72 269.354 1025.26 268.552C1022.63 269.812 1019.82 270.613 1016.85 270.957C1013.98 271.301 1011.06 271.415 1008.08 271.301C1006.14 271.186 1003.9 270.9 1001.39 270.442C998.866 269.984 996.346 269.354 993.827 268.552C991.307 267.636 988.96 266.605 986.784 265.46C984.608 264.2 982.947 262.712 981.802 260.994C981.001 259.849 980.428 258.589 980.084 257.215C979.741 255.84 978.939 254.81 977.68 254.122C978.023 251.489 978.424 248.912 978.882 246.392C979.34 243.873 979.798 241.296 980.256 238.662C982.547 236.715 984.723 234.654 986.784 232.478C988.845 230.302 990.792 228.012 992.624 225.607C994.8 224.576 996.804 223.317 998.637 221.828C1000.58 220.339 1002.47 218.85 1004.31 217.361C1006.25 215.758 1008.14 214.212 1009.97 212.723C1011.92 211.235 1013.98 209.918 1016.16 208.772C1016.5 207.971 1016.96 207.341 1017.53 206.883C1018.22 206.31 1018.91 205.795 1019.59 205.337C1020.28 204.764 1020.91 204.192 1021.48 203.619C1022.06 202.932 1022.46 202.13 1022.69 201.214C1026.69 198.809 1030.19 195.774 1033.16 192.11C1036.14 188.445 1038.09 184.322 1039.01 179.741C1037.06 178.138 1034.83 177.108 1032.31 176.649C1029.9 176.077 1027.38 175.676 1024.75 175.447C1022.46 175.332 1020.05 175.332 1017.53 175.447C1015.13 175.562 1012.67 175.504 1010.15 175.275C1007.63 176.077 1004.99 176.592 1002.24 176.821C999.61 177.05 996.976 177.279 994.342 177.508C991.708 177.623 989.074 177.966 986.44 178.539C983.921 178.997 981.459 179.913 979.054 181.288C978.596 181.288 978.138 181.23 977.68 181.116C977.336 181.001 976.935 180.944 976.477 180.944C972.812 180.829 969.377 181.574 966.17 183.177C962.964 184.666 959.814 186.155 956.722 187.643C956.493 188.101 956.379 188.445 956.379 188.674C956.379 189.361 956.493 190.048 956.722 190.735C957.066 191.308 957.238 191.938 957.238 192.625C957.123 192.74 957.066 192.854 957.066 192.969C957.066 193.083 957.009 193.198 956.894 193.312C956.78 193.885 956.608 194.4 956.379 194.858C956.264 195.316 956.092 195.832 955.863 196.404C954.604 200.069 953.917 203.676 953.802 207.226C953.688 210.204 953.688 213.124 953.802 215.987C953.917 218.85 953.917 221.77 953.802 224.748C953.573 228.413 953 231.848 952.084 235.055C952.657 237.803 953.172 240.724 953.63 243.816C954.088 246.793 954.661 249.771 955.348 252.748C956.035 255.726 956.837 258.646 957.753 261.509C958.784 264.258 960.101 266.892 961.704 269.411C961.589 269.64 961.647 269.812 961.876 269.926C962.105 270.041 962.334 270.098 962.563 270.098H963.937C964.51 270.098 964.739 270.327 964.624 270.785C964.853 271.129 965.025 271.472 965.14 271.816C965.254 272.045 965.483 272.274 965.827 272.503C966.056 272.847 966.056 273.305 965.827 273.877C965.712 276.168 965.14 278.286 964.109 280.233C963.078 282.18 962.448 284.299 962.219 286.589C960.845 286.933 959.585 287.104 958.44 287.104C956.493 286.99 954.775 286.417 953.287 285.387C951.798 284.47 950.424 283.325 949.164 281.951C947.904 280.577 946.702 279.202 945.557 277.828C944.411 276.339 943.152 275.08 941.777 274.049C940.976 270.842 940.174 267.292 939.372 263.399C938.685 259.505 937.483 256.184 935.765 253.435C936.223 252.405 936.452 251.145 936.452 249.656C936.567 247.366 936.338 245.133 935.765 242.957C935.307 240.666 935.192 238.376 935.422 236.086C935.422 234.826 935.536 233.566 935.765 232.306C936.109 231.047 936.338 229.787 936.452 228.527C936.567 226.58 936.338 224.691 935.765 222.858C935.307 221.026 935.135 219.137 935.25 217.19C935.364 216.274 935.536 215.415 935.765 214.613C936.109 213.697 936.567 212.895 937.139 212.208C936.567 210.834 936.395 209.517 936.624 208.257C936.739 206.31 936.968 204.478 937.311 202.76C937.655 201.042 937.884 199.324 937.998 197.607C937.998 196.691 937.941 195.832 937.826 195.03C937.712 194.114 937.54 193.255 937.311 192.453L935.765 191.938C935.078 191.938 934.391 192.11 933.704 192.453C933.131 192.797 932.616 193.198 932.158 193.656C931.7 194.114 931.299 194.515 930.955 194.858C930.612 195.087 930.268 195.202 929.925 195.202C929.696 195.202 929.409 195.202 929.066 195.202C928.837 195.087 928.608 195.03 928.379 195.03C928.149 195.03 927.691 195.259 927.004 195.717C926.432 196.175 925.687 196.691 924.771 197.263C923.969 197.721 923.168 198.237 922.366 198.809C921.565 199.267 920.935 199.554 920.477 199.668C919.217 199.439 918.186 199.038 917.385 198.466C916.697 197.778 916.01 197.149 915.323 196.576C914.751 195.889 914.121 195.316 913.434 194.858C912.746 194.286 911.888 194.057 910.857 194.171C910.513 193.484 910.342 192.74 910.342 191.938C910.227 191.136 910.227 190.335 910.342 189.533V186.785C911.143 185.296 912.231 184.093 913.605 183.177C914.865 182.146 916.239 181.288 917.728 180.6L922.194 178.539C923.683 177.852 925.057 176.993 926.317 175.962H927.863C929.925 176.077 931.7 175.676 933.188 174.76C934.792 173.844 936.28 172.813 937.655 171.668C939.029 170.408 940.403 169.148 941.777 167.889C943.266 166.629 944.869 165.655 946.587 164.968C947.847 165.541 949.164 166.056 950.538 166.514C951.912 166.858 953.344 167.087 954.833 167.202C956.322 167.202 957.868 166.972 959.471 166.514C961.074 166.056 962.334 165.197 963.25 163.938C963.823 164.167 964.281 164.339 964.624 164.453C965.082 164.453 965.598 164.453 966.17 164.453C967.888 164.568 969.606 164.339 971.324 163.766C973.041 163.079 974.702 162.277 976.305 161.361C978.596 161.475 980.829 161.361 983.005 161.017C985.295 160.559 987.528 160.101 989.704 159.643C991.995 159.185 994.228 158.784 996.404 158.441C998.694 157.983 1000.98 157.811 1003.27 157.925C1007.05 158.04 1010.78 157.696 1014.44 156.895C1018.11 156.093 1021.83 155.807 1025.61 156.036C1028.24 156.15 1030.82 156.379 1033.34 156.723C1035.97 156.952 1038.6 157.009 1041.24 156.895C1042.73 157.582 1044.04 158.212 1045.19 158.784C1046.45 159.242 1048 159.357 1049.83 159.128C1053.49 162.22 1056.81 165.827 1059.79 169.95V172.87C1059.68 175.504 1059.22 178.081 1058.42 180.6C1057.61 183.12 1056.64 185.639 1055.5 188.159C1054.47 190.564 1053.32 192.969 1052.06 195.374C1050.8 197.664 1049.6 199.954 1048.45 202.245C1041.01 209.001 1033.57 215.701 1026.12 222.343C1018.68 228.985 1011 235.398 1003.1 241.583C1002.87 242.728 1002.53 243.758 1002.07 244.675C1001.73 245.591 1001.5 246.564 1001.39 247.595C1001.39 248.167 1001.44 248.626 1001.56 248.969C1002.36 249.198 1003.05 249.656 1003.62 250.343C1004.31 250.916 1004.53 251.718 1004.31 252.748H1005.85C1006.42 252.748 1006.71 252.977 1006.71 253.435L1009.46 253.607C1013.81 253.836 1018.16 253.722 1022.51 253.264C1026.87 252.806 1031.22 252.29 1035.57 251.718C1040.04 251.145 1044.44 250.63 1048.8 250.172C1053.15 249.599 1057.5 249.255 1061.85 249.141C1062.88 248.797 1063.97 248.511 1065.12 248.282C1066.26 248.053 1067.29 247.595 1068.21 246.908H1068.72C1069.52 246.908 1070.1 247.137 1070.44 247.595C1070.9 248.053 1071.53 248.339 1072.33 248.454C1072.9 248.454 1073.48 248.339 1074.05 248.11C1074.74 247.881 1075.42 247.709 1076.11 247.595C1077.71 247.137 1079.37 246.85 1081.09 246.736C1082.92 246.621 1084.7 246.45 1086.42 246.221C1093.06 245.648 1099.64 245.304 1106.17 245.19C1112.7 244.961 1119.23 244.102 1125.75 242.613C1126.33 243.415 1127.13 243.987 1128.16 244.331C1129.19 244.56 1130.28 244.846 1131.42 245.19C1132.57 245.419 1133.6 245.705 1134.52 246.049C1135.55 246.392 1136.23 247.079 1136.58 248.11ZM1124.9 254.466C1124.32 255.382 1123.64 256.241 1122.83 257.043C1122.03 257.73 1121.29 258.474 1120.6 259.276C1119.8 259.619 1118.88 259.791 1117.85 259.791C1116.94 259.791 1116.02 259.791 1115.1 259.791C1114.3 259.677 1113.5 259.677 1112.7 259.791C1112.01 259.791 1111.44 260.02 1110.98 260.478C1110.07 260.249 1109.38 259.849 1108.92 259.276C1108.46 258.589 1107.66 258.188 1106.51 258.073C1106.06 257.959 1105.6 257.959 1105.14 258.073C1103.42 256.127 1101.82 254.065 1100.33 251.889C1098.96 249.713 1097.64 247.652 1096.38 245.705C1096.27 241.468 1095.92 237.173 1095.35 232.822C1095.23 231.791 1095.06 230.76 1094.83 229.73C1094.6 228.699 1094.43 227.726 1094.32 226.809C1094.32 225.664 1094.38 224.576 1094.49 223.546C1094.72 222.4 1094.89 221.37 1095.01 220.453C1095.46 217.132 1095.98 213.869 1096.55 210.662C1097.12 207.455 1097.64 204.192 1098.1 200.871C1098.56 197.893 1098.78 194.801 1098.78 191.594C1098.78 188.273 1098.27 185.181 1097.24 182.318L1097.07 181.459C1097.3 180.543 1097.53 179.799 1097.75 179.226C1098.1 178.539 1098.33 177.795 1098.44 176.993C1098.67 175.733 1098.38 174.817 1097.58 174.245C1097.93 173.328 1098.5 172.756 1099.3 172.527C1100.1 172.183 1100.56 171.496 1100.67 170.465C1100.79 170.007 1100.79 169.549 1100.67 169.091C1101.59 168.748 1102.51 168.461 1103.42 168.232C1104.45 167.889 1105.43 167.831 1106.34 168.06C1107.83 168.289 1109.15 168.805 1110.29 169.606C1111.44 170.294 1112.53 171.095 1113.56 172.011C1115.39 177.508 1116.13 183.349 1115.79 189.533C1115.45 195.603 1114.87 201.729 1114.07 207.914C1113.27 214.098 1112.76 220.167 1112.53 226.122C1112.3 231.963 1113.21 237.403 1115.28 242.441L1115.62 242.613C1116.19 242.728 1116.65 242.556 1116.99 242.098C1117.34 241.525 1117.8 241.296 1118.37 241.411C1118.83 241.64 1119.11 241.754 1119.23 241.754C1119.68 244.045 1120.43 246.221 1121.46 248.282C1122.49 250.343 1123.64 252.405 1124.9 254.466ZM1232.09 256.356C1232.09 258.302 1231.57 260.02 1230.54 261.509C1229.62 262.883 1229.28 264.601 1229.51 266.662C1227.91 267.579 1226.59 268.781 1225.56 270.27C1224.53 271.759 1223.55 273.305 1222.64 274.908C1215.08 279.832 1206.95 283.783 1198.25 286.761C1189.66 289.853 1180.78 291.399 1171.62 291.399C1171.05 291.399 1170.53 291.113 1170.07 290.54C1169.62 290.082 1169.16 289.567 1168.7 288.994C1168.24 288.421 1167.73 287.849 1167.15 287.276C1166.7 286.818 1166.12 286.589 1165.44 286.589C1164.63 286.589 1164 286.761 1163.55 287.104C1163.55 286.875 1163.55 286.646 1163.55 286.417C1163.66 286.303 1163.72 286.131 1163.72 285.902C1163.72 284.528 1163.55 283.096 1163.2 281.607C1162.86 280.233 1162.69 278.859 1162.69 277.485C1162.69 275.881 1162.97 274.564 1163.55 273.534H1165.61C1166.75 273.534 1167.84 273.476 1168.87 273.362C1170.02 273.133 1171.22 273.018 1172.48 273.018C1173.74 273.018 1174.88 273.362 1175.91 274.049C1182.21 273.82 1188.17 272.675 1193.78 270.613C1199.51 268.438 1205.29 266.319 1211.13 264.258C1212.05 262.998 1212.56 261.624 1212.68 260.135C1212.9 258.532 1213.36 257.043 1214.05 255.669C1211.07 253.149 1208.04 251.202 1204.95 249.828C1201.97 248.339 1198.47 247.824 1194.47 248.282C1192.06 246.793 1189.49 245.934 1186.74 245.705C1184.1 245.476 1181.41 245.133 1178.66 244.675C1177.98 244.56 1177.23 244.446 1176.43 244.331C1175.74 244.102 1175 243.987 1174.2 243.987C1173.62 243.987 1173.05 244.159 1172.48 244.503C1172.02 244.732 1171.91 245.133 1172.14 245.705C1171.56 244.789 1170.76 244.274 1169.73 244.159C1168.81 243.93 1168.01 243.472 1167.33 242.785C1163.66 242.556 1160.45 241.926 1157.71 240.895C1154.96 239.75 1151.92 238.49 1148.6 237.116C1147.69 236.773 1146.77 236.544 1145.85 236.429C1145.05 236.2 1144.25 235.856 1143.45 235.398C1141.39 234.368 1139.73 232.993 1138.47 231.276C1137.21 229.558 1136.23 227.668 1135.55 225.607C1134.74 223.431 1134.17 221.198 1133.83 218.907C1133.48 216.617 1133.14 214.498 1132.8 212.552C1133.83 210.719 1134.8 208.83 1135.72 206.883C1136.52 204.936 1137.21 202.875 1137.78 200.699C1138.47 200.355 1139.15 200.069 1139.84 199.84C1140.53 199.611 1141.27 199.324 1142.07 198.981C1141.96 198.752 1141.9 198.466 1141.9 198.122C1141.9 197.549 1142.07 196.977 1142.42 196.404C1142.88 195.832 1142.99 195.259 1142.76 194.686C1145.28 192.396 1147.69 190.048 1149.98 187.643C1152.38 185.124 1154.44 182.375 1156.16 179.398C1157.88 178.825 1159.25 177.966 1160.28 176.821C1161.31 175.676 1162.34 174.531 1163.37 173.386C1164.41 172.126 1165.55 171.038 1166.81 170.122C1168.07 169.091 1169.67 168.461 1171.62 168.232C1172.08 167.431 1172.71 166.801 1173.51 166.343C1174.31 165.77 1175.11 165.255 1175.91 164.797C1176.72 164.339 1177.46 163.823 1178.15 163.251C1178.83 162.678 1179.35 161.876 1179.69 160.846C1181.53 160.846 1183.19 160.502 1184.68 159.815C1186.28 159.128 1187.82 158.383 1189.31 157.582C1190.8 156.78 1192.29 156.036 1193.78 155.349C1195.38 154.662 1197.1 154.318 1198.93 154.318C1199.39 154.318 1199.85 154.375 1200.31 154.49C1200.77 154.49 1201.28 154.547 1201.85 154.662C1202.65 155.463 1203.17 156.437 1203.4 157.582C1203.74 158.612 1203.97 159.758 1204.09 161.017C1204.2 162.277 1204.26 163.537 1204.26 164.797C1204.37 166.056 1204.6 167.202 1204.95 168.232C1203.91 170.179 1202.77 172.126 1201.51 174.073C1200.36 176.02 1198.82 177.508 1196.87 178.539H1196.53C1195.73 178.654 1194.98 178.482 1194.29 178.024C1193.61 177.566 1192.81 177.337 1191.89 177.337C1191.32 177.337 1190.86 177.508 1190.52 177.852L1189.66 178.711C1189.43 178.94 1189.08 179.169 1188.63 179.398C1188.28 179.627 1187.77 179.627 1187.08 179.398C1185.48 179.971 1184.85 180.944 1185.19 182.318C1183.01 182.547 1181.18 183.234 1179.69 184.38C1178.2 185.41 1176.83 186.613 1175.57 187.987C1174.31 189.247 1173.05 190.449 1171.79 191.594C1170.53 192.625 1169.04 193.198 1167.33 193.312C1165.38 196.748 1162.97 199.783 1160.11 202.417C1157.36 205.051 1155.07 208.028 1153.24 211.349C1153.58 212.265 1153.81 213.239 1153.93 214.269C1154.04 215.3 1154.21 216.388 1154.44 217.533C1155.47 218.907 1156.67 220.11 1158.05 221.141C1159.54 222.171 1160.97 223.202 1162.34 224.233H1162.86C1165.15 224.233 1167.27 224.691 1169.21 225.607C1171.16 226.409 1173.22 226.809 1175.4 226.809C1176.54 226.809 1177.52 226.58 1178.32 226.122C1181.3 226.809 1184.22 227.382 1187.08 227.84C1190.06 228.298 1193.04 228.642 1196.01 228.871C1197.5 229.1 1198.99 229.214 1200.48 229.214C1202.08 229.214 1203.57 229.386 1204.95 229.73C1206.21 230.073 1207.46 230.531 1208.72 231.104C1209.98 231.562 1211.24 232.077 1212.5 232.65C1215.14 233.795 1217.6 235.055 1219.89 236.429C1222.3 237.803 1224.41 239.464 1226.25 241.411C1228.08 243.243 1229.51 245.419 1230.54 247.938C1231.57 250.343 1232.09 253.149 1232.09 256.356ZM1349.41 197.778C1348.95 198.924 1348.5 200.012 1348.04 201.042C1347.58 202.073 1347.24 203.218 1347.01 204.478C1346.21 205.051 1345.29 205.509 1344.26 205.852C1343.34 206.081 1342.37 206.367 1341.34 206.711C1340.31 206.94 1339.33 207.284 1338.42 207.742C1337.62 208.085 1336.99 208.658 1336.53 209.46C1336.19 211.177 1336.01 212.781 1336.01 214.269C1336.01 216.216 1336.36 217.877 1337.04 219.251C1336.7 220.282 1336.47 221.37 1336.36 222.515C1336.24 223.66 1336.19 224.748 1336.19 225.779C1336.19 229.558 1336.64 233.337 1337.56 237.116C1338.48 240.781 1338.99 244.503 1339.11 248.282C1339.11 248.855 1339.05 249.484 1338.93 250.172C1338.82 250.859 1338.76 251.489 1338.76 252.061C1338.76 254.466 1339.68 256.069 1341.51 256.871C1341.17 257.444 1341 257.959 1341 258.417C1341 259.333 1341.11 260.135 1341.34 260.822C1341.57 261.509 1341.63 262.253 1341.51 263.055C1342.08 264.2 1342.66 265.231 1343.23 266.147C1343.8 266.949 1344.2 267.979 1344.43 269.239C1343.63 270.842 1342.66 272.331 1341.51 273.705C1340.37 274.965 1339.56 276.568 1339.11 278.515C1338.65 278.401 1338.13 278.344 1337.56 278.344C1336.76 278.344 1336.13 278.515 1335.67 278.859C1335.21 279.202 1334.81 279.603 1334.47 280.061C1334.24 280.634 1333.95 281.149 1333.61 281.607C1333.27 282.18 1332.81 282.581 1332.23 282.81H1331.72C1331.15 282.924 1330.63 282.867 1330.17 282.638C1329.83 282.524 1329.49 282.466 1329.14 282.466C1328.91 282.466 1328.46 282.581 1327.77 282.81C1326.85 281.665 1326.22 280.29 1325.88 278.687C1325.54 277.198 1325.36 275.71 1325.36 274.221C1325.36 272.618 1325.59 271.186 1326.05 269.926C1324.79 268.896 1323.99 267.35 1323.65 265.288C1323.42 263.227 1323.13 261.509 1322.79 260.135C1321.87 255.898 1320.78 251.775 1319.52 247.767C1318.38 243.758 1317.69 239.636 1317.46 235.398C1317.35 233.795 1317.29 232.249 1317.29 230.76V221.828C1317.29 220.339 1317.35 218.907 1317.46 217.533C1317.46 216.503 1317.52 215.529 1317.63 214.613C1317.86 213.582 1317.98 212.552 1317.98 211.521C1317.98 210.147 1317.52 208.83 1316.6 207.57C1308.47 207.914 1300.74 209.402 1293.41 212.036C1286.2 214.556 1278.98 217.59 1271.77 221.141C1271.31 223.775 1271.02 226.351 1270.91 228.871C1270.79 231.39 1270.74 233.967 1270.74 236.601V244.159C1270.74 247.022 1270.85 249.427 1271.08 251.374C1271.65 254.695 1273.31 257.272 1276.06 259.104C1278.93 260.822 1281.79 262.139 1284.65 263.055C1284.54 264.773 1284.19 266.262 1283.62 267.521C1283.05 268.667 1282.3 269.755 1281.39 270.785C1280.59 271.701 1279.67 272.618 1278.64 273.534C1277.61 274.45 1276.58 275.481 1275.55 276.626C1274.63 276.053 1273.71 275.652 1272.8 275.423C1271.88 275.194 1270.91 275.08 1269.88 275.08C1268.85 274.965 1267.82 274.851 1266.79 274.736C1265.76 274.622 1264.72 274.393 1263.69 274.049L1259.92 268.896C1258.66 267.178 1257.28 265.46 1255.79 263.742V262.196C1255.79 259.104 1255.22 256.127 1254.07 253.264C1252.93 250.401 1252.07 247.48 1251.5 244.503C1251.84 243.472 1252.07 242.441 1252.18 241.411C1252.3 240.38 1252.36 239.292 1252.36 238.147C1252.36 235.856 1252.24 233.623 1252.01 231.447C1251.9 229.272 1251.96 227.096 1252.18 224.92H1251.33C1250.3 224.92 1249.21 225.206 1248.06 225.779C1246.92 226.237 1245.77 226.809 1244.63 227.497C1243.6 228.069 1242.57 228.642 1241.53 229.214C1240.62 229.672 1239.82 229.901 1239.13 229.901C1238.79 229.901 1238.44 229.844 1238.1 229.73C1237.76 229.615 1237.35 229.558 1236.9 229.558C1236.32 229.558 1235.64 229.787 1234.84 230.245C1234.03 230.703 1233.17 231.218 1232.26 231.791C1231.23 232.249 1230.2 232.707 1229.17 233.165C1228.14 233.623 1227.1 233.852 1226.07 233.852C1224.47 233.852 1222.87 233.165 1221.26 231.791C1221.04 230.875 1220.98 230.016 1221.09 229.214C1221.09 228.413 1221.09 227.554 1221.09 226.638C1221.09 225.721 1220.92 224.748 1220.58 223.717C1221.38 222.229 1222.47 221.083 1223.84 220.282C1225.1 219.366 1226.48 218.564 1227.96 217.877C1229.34 217.075 1230.77 216.331 1232.26 215.644C1233.75 214.842 1235.01 213.811 1236.04 212.552H1237.07C1238.67 212.552 1240.1 212.208 1241.36 211.521C1242.74 210.834 1244.28 210.547 1246 210.662C1246.57 210.433 1246.97 209.574 1247.2 208.085L1247.89 208.257C1250.41 208.257 1252.64 207.398 1254.59 205.68C1255.85 198.58 1256.88 191.423 1257.68 184.208C1258.48 176.993 1258.88 169.778 1258.88 162.563C1258.88 161.876 1258.66 161.189 1258.2 160.502C1257.97 159.586 1257.85 158.727 1257.85 157.925V155.349C1257.85 154.089 1257.91 152.772 1258.03 151.398C1258.14 150.023 1258.43 148.649 1258.88 147.275C1260.03 146.588 1261.23 146.244 1262.49 146.244C1263.98 146.244 1265.41 146.473 1266.79 146.931C1268.28 147.275 1269.71 147.561 1271.08 147.79C1272.11 148.821 1272.86 149.966 1273.31 151.226C1273.89 152.486 1274.23 153.803 1274.34 155.177C1274.46 156.437 1274.46 157.754 1274.34 159.128C1274.34 160.388 1274.34 161.647 1274.34 162.907C1274.34 165.426 1274.63 167.889 1275.2 170.294C1275.78 172.698 1276.06 175.046 1276.06 177.337C1276.06 177.909 1275.83 178.367 1275.38 178.711C1275.03 178.94 1274.86 179.684 1274.86 180.944C1274.86 182.204 1274.97 183.521 1275.2 184.895C1275.43 186.269 1275.55 187.643 1275.55 189.018C1275.55 190.621 1275.32 192.281 1274.86 193.999C1274.4 195.717 1274 197.378 1273.66 198.981C1280.53 198.408 1287.57 197.549 1294.79 196.404C1302 195.259 1308.87 193.427 1315.4 190.907C1315.51 190.678 1315.57 190.335 1315.57 189.877C1315.57 189.189 1315.51 188.502 1315.4 187.815C1315.29 187.128 1315.23 186.384 1315.23 185.582C1315.23 184.208 1315.69 183.12 1316.6 182.318C1316.03 179.112 1315.63 175.905 1315.4 172.698C1315.17 169.492 1315.06 166.285 1315.06 163.079V153.287C1315.06 150.081 1315 146.874 1314.88 143.668C1315.8 143.095 1316.77 142.809 1317.81 142.809C1319.06 142.809 1320.21 143.152 1321.24 143.839C1322.39 144.412 1323.7 144.698 1325.19 144.698C1326.22 144.698 1327.08 144.526 1327.77 144.183C1329.03 145.328 1329.89 146.817 1330.35 148.649C1330.8 150.482 1331.2 152.371 1331.55 154.318C1331.89 156.265 1332.23 158.212 1332.58 160.159C1333.04 161.991 1333.9 163.48 1335.15 164.625L1335.33 165.14C1335.33 165.598 1335.1 165.942 1334.64 166.171C1334.18 166.4 1333.95 166.858 1333.95 167.545V168.232C1334.41 170.065 1334.75 171.954 1334.98 173.901C1335.21 175.848 1335.38 177.852 1335.5 179.913C1335.73 181.86 1336.01 183.807 1336.36 185.754C1336.7 187.586 1337.33 189.304 1338.25 190.907C1338.82 190.793 1339.56 190.735 1340.48 190.735C1342.77 190.735 1344.55 191.537 1345.81 193.14C1347.18 194.629 1348.38 196.175 1349.41 197.778Z" fill="url(#paint0_linear_293_33)"/>
</g>
</g>
</g>
<defs>
<filter id="filter0_n_293_33" x="0" y="0" width="1781" height="413" filterUnits="userSpaceOnUse" color-interpolation-filters="sRGB">
<feFlood flood-opacity="0" result="BackgroundImageFix"/>
<feBlend mode="normal" in="SourceGraphic" in2="BackgroundImageFix" result="shape"/>
<feTurbulence type="fractalNoise" baseFrequency="0.91672301292419434 0.91672301292419434" stitchTiles="stitch" numOctaves="3" result="noise" seed="3049" />
<feColorMatrix in="noise" type="luminanceToAlpha" result="alphaNoise" />
<feComponentTransfer in="alphaNoise" result="coloredNoise1">
<feFuncA type="discrete" tableValues="1 1 1 1 1 1 1 1 1 1 1 1 1 1 1 1 1 1 1 1 1 1 1 1 1 1 1 1 1 1 1 1 1 1 1 1 1 1 1 1 1 1 1 1 1 1 1 1 1 1 1 0 0 0 0 0 0 0 0 0 0 0 0 0 0 0 0 0 0 0 0 0 0 0 0 0 0 0 0 0 0 0 0 0 0 0 0 0 0 0 0 0 0 0 0 0 0 0 0 0 "/>
</feComponentTransfer>
<feComposite operator="in" in2="shape" in="coloredNoise1" result="noise1Clipped" />
<feFlood flood-color="rgba(201, 169, 221, 0.2)" result="color1Flood" />
<feComposite operator="in" in2="noise1Clipped" in="color1Flood" result="color1" />
<feMerge result="effect1_noise_293_33">
<feMergeNode in="shape" />
<feMergeNode in="color1" />
</feMerge>
</filter>
<filter id="filter1_d_293_33" x="404.611" y="80.4523" width="949.105" height="245.206" filterUnits="userSpaceOnUse" color-interpolation-filters="sRGB">
<feFlood flood-opacity="0" result="BackgroundImageFix"/>
<feColorMatrix in="SourceAlpha" type="matrix" values="0 0 0 0 0 0 0 0 0 0 0 0 0 0 0 0 0 0 127 0" result="hardAlpha"/>
<feOffset dy="8.48433"/>
<feGaussianBlur stdDeviation="2.15138"/>
<feComposite in2="hardAlpha" operator="out"/>
<feColorMatrix type="matrix" values="0 0 0 0 0 0 0 0 0 0 0 0 0 0 0 0 0 0 0.25 0"/>
<feBlend mode="normal" in2="BackgroundImageFix" result="effect1_dropShadow_293_33"/>
<feBlend mode="normal" in="SourceGraphic" in2="effect1_dropShadow_293_33" result="shape"/>
</filter>
<linearGradient id="paint0_linear_293_33" x1="891" y1="-4" x2="891" y2="416" gradientUnits="userSpaceOnUse">
<stop stop-color="#C9A9DD"/>
<stop offset="1" stop-color="#491077"/>
</linearGradient>
<clipPath id="clip0_293_33">
<rect width="1781" height="413" fill="white"/>
</clipPath>
</defs>
</svg>
