<svg width="1627" height="681" viewBox="0 0 1627 681" fill="none" xmlns="http://www.w3.org/2000/svg">
<g filter="url(#filter0_n_293_33)">
<g clip-path="url(#clip0_293_33)">
<rect width="1627" height="681" fill="#2A232D"/>
<g filter="url(#filter1_d_293_33)">
<path d="M324.605 202.473C324.605 209.087 323.377 215.512 320.92 221.748C318.464 227.795 316.668 234.031 315.534 240.456C311.377 245.936 307.503 251.605 303.913 257.463C300.322 263.321 296.637 269.179 292.858 275.037C289.079 280.896 285.11 286.565 280.953 292.045C276.796 297.336 272.071 302.155 266.78 306.501C266.969 306.69 267.064 307.068 267.064 307.635C267.064 308.769 266.497 309.713 265.363 310.469C264.418 311.036 264.135 311.792 264.512 312.737C259.788 317.65 255.158 322.469 250.623 327.193C246.088 331.917 241.931 337.209 238.151 343.067C233.994 345.145 230.592 348.547 227.947 353.271C226.813 353.271 225.963 353.555 225.396 354.122C224.829 354.499 224.073 354.877 223.128 355.255C217.081 362.625 210.75 369.617 204.136 376.231C197.523 382.845 190.436 388.892 182.877 394.372C180.043 396.451 177.208 398.341 174.374 400.041C171.539 401.742 168.799 403.537 166.153 405.427C164.453 406.561 162.752 407.884 161.051 409.395C159.54 410.907 157.933 412.324 156.233 413.647C150.752 418.371 145.367 422.34 140.076 425.552C134.784 428.576 128.548 430.654 121.368 431.788C120.801 433.867 120.517 436.135 120.517 438.591V445.394C120.517 447.662 120.423 450.024 120.234 452.481C120.045 454.748 119.383 456.921 118.25 459V459.85C118.25 461.74 118.722 463.535 119.667 465.236C120.612 467.126 121.084 469.015 121.084 470.905C121.084 472.228 120.423 473.362 119.1 474.307H126.47C126.47 476.952 127.226 479.22 128.737 481.11C130.438 482.999 131.288 484.417 131.288 485.361C131.288 488.574 130.911 492.07 130.155 495.849C129.588 499.818 127.698 502.463 124.486 503.786V505.487C124.486 507.376 124.297 509.172 123.919 510.872C123.541 512.762 122.69 514.557 121.368 516.258C120.234 516.258 119.1 516.258 117.966 516.258C117.021 516.447 116.076 516.541 115.131 516.541C107.195 516.541 100.108 514.652 93.8723 510.872C91.7937 505.959 90.3764 500.857 89.6205 495.566C89.0536 490.464 88.7701 485.267 88.7701 479.976C88.7701 469.582 89.526 459.283 91.0378 449.079C92.5495 438.875 93.7779 428.67 94.7227 418.466L98.9745 410.246C99.3525 404.955 100.014 399.663 100.959 394.372C101.904 388.892 102.848 383.506 103.793 378.215C104.738 372.924 105.494 367.633 106.061 362.342C106.817 357.051 107.1 351.759 106.911 346.468C108.423 343.256 109.462 339.854 110.029 336.264C110.785 332.673 111.163 329.177 111.163 325.776C111.163 323.886 111.069 321.997 110.88 320.107C110.691 318.217 110.124 316.422 109.179 314.721C110.313 313.965 111.069 313.02 111.447 311.887C111.825 310.753 112.391 309.713 113.147 308.769C113.714 301.399 114.187 294.123 114.565 286.943C114.943 279.573 115.131 272.297 115.131 265.117C115.131 261.148 115.037 257.274 114.848 253.495C114.659 249.526 114.376 245.558 113.998 241.59C113.809 240.078 113.431 238.283 112.864 236.204C112.486 234.125 112.297 232.519 112.297 231.385C112.297 229.874 112.391 228.362 112.58 226.85C112.769 225.149 112.864 223.449 112.864 221.748C112.864 219.858 112.675 218.063 112.297 216.362C111.919 214.472 111.258 212.772 110.313 211.26C101.242 213.906 93.1165 217.496 85.9356 222.031C78.7547 226.378 71.4794 231.291 64.1095 236.771C61.086 238.85 57.779 241.306 54.1886 244.141C50.5981 246.975 47.1967 249.149 43.9842 250.66C43.4173 251.038 42.7559 251.322 42 251.511C41.0551 251.511 40.2993 251.511 39.7324 251.511C37.6537 251.511 35.764 251.416 34.0632 251.227C32.3625 250.849 30.6618 250.66 28.9611 250.66C26.3155 248.015 23.1975 245.936 19.607 244.424C19.0401 242.157 18.7567 239.7 18.7567 237.054C18.7567 234.409 19.0401 231.858 19.607 229.401C19.985 226.945 20.6464 224.488 21.5912 222.031C23.8589 221.275 26.3155 220.425 28.9611 219.48C31.4177 218.535 33.8743 217.496 36.3309 216.362C38.5985 215.039 40.6772 213.622 42.5669 212.11C44.4566 210.41 45.9684 208.331 47.1022 205.874C48.236 206.441 49.2754 206.725 50.2202 206.725C51.1651 206.725 52.0154 206.63 52.7713 206.441C53.5272 206.252 54.3776 206.063 55.3224 205.874C58.7239 203.796 62.1253 201.622 65.5268 199.355C69.1172 197.087 72.8022 195.198 76.5816 193.686C77.7154 193.308 78.3768 192.835 78.5657 192.268C78.7547 191.702 78.7547 190.851 78.5657 189.717C82.9121 188.395 87.4473 186.883 92.1716 185.182C96.8959 183.292 100.864 180.741 104.077 177.529H109.179C112.013 175.45 115.037 173.749 118.25 172.427C121.462 171.104 124.674 169.875 127.887 168.742C131.288 167.419 134.595 166.096 137.808 164.773C141.02 163.262 144.044 161.372 146.878 159.104C148.012 158.726 148.957 158.537 149.713 158.537C150.658 158.537 151.697 158.726 152.831 159.104C154.721 158.159 156.327 157.026 157.65 155.703L162.185 151.167C165.209 151.167 167.949 150.884 170.405 150.317C172.862 149.75 175.224 148.994 177.492 148.049C179.759 147.105 181.932 146.065 184.011 144.931C186.279 143.609 188.735 142.286 191.381 140.963C192.515 141.341 193.365 141.813 193.932 142.38C194.499 142.758 195.444 142.947 196.767 142.947C198.656 141.624 200.641 140.68 202.719 140.113C204.987 139.357 207.254 138.79 209.522 138.412C211.79 138.034 213.963 137.562 216.042 136.995C218.309 136.428 220.293 135.388 221.994 133.877C228.041 133.877 234.088 133.782 240.135 133.593C246.371 133.215 252.513 133.026 258.56 133.026C267.253 133.026 276.04 133.688 284.921 135.01C293.992 136.333 302.118 139.64 309.298 144.931C312.133 151.734 316.196 157.498 321.487 162.222C321.865 164.301 322.243 166.285 322.621 168.175C323.188 169.875 323.849 171.576 324.605 173.277C323.282 176.112 322.621 179.23 322.621 182.631C322.621 186.032 322.904 189.434 323.471 192.835C324.227 196.048 324.605 199.26 324.605 202.473ZM298.244 195.67C297.299 193.969 296.637 192.079 296.259 190.001C296.071 187.733 296.071 185.56 296.259 183.481C293.803 181.592 291.913 179.135 290.59 176.112C289.268 173.088 287.378 170.82 284.921 169.309C283.221 168.364 280.764 167.797 277.551 167.608C274.528 167.419 271.977 167.041 269.898 166.474C267.442 165.718 265.741 164.962 264.796 164.206C264.04 163.451 262.339 163.073 259.694 163.073C257.426 163.073 255.158 163.356 252.891 163.923C250.623 164.301 248.356 164.49 246.088 164.49C244.198 164.49 242.403 164.112 240.702 163.356C239.002 162.6 237.206 162.222 235.317 162.222C233.238 162.222 231.254 162.884 229.364 164.206C227.663 165.529 225.585 165.907 223.128 165.34C221.994 166.285 221.333 167.041 221.144 167.608C221.144 168.175 221.049 168.647 220.86 169.025C220.671 169.214 220.199 169.309 219.443 169.309H215.475C211.506 169.309 207.443 169.875 203.286 171.009C199.318 172.143 195.727 174.033 192.515 176.678C191.948 176.489 191.381 176.395 190.814 176.395C190.436 176.206 189.964 176.112 189.397 176.112C186.184 176.112 183.066 177.056 180.043 178.946C177.208 180.647 173.996 181.497 170.405 181.497C168.138 183.765 165.398 185.56 162.185 186.883C158.973 188.206 155.666 189.528 152.264 190.851C149.052 191.985 146.028 193.402 143.194 195.103C140.359 196.615 138.186 198.882 136.674 201.906C136.485 203.418 136.958 204.363 138.091 204.741C139.225 205.118 139.792 206.063 139.792 207.575C139.792 208.898 139.509 210.504 138.942 212.394C138.564 214.284 138.375 216.173 138.375 218.063C138.375 222.409 138.847 226.661 139.792 230.818C140.737 234.976 141.682 239.228 142.627 243.574C141.682 244.141 141.02 244.991 140.642 246.125C140.265 247.259 139.603 248.109 138.658 248.676C141.304 256.613 142.627 264.739 142.627 273.053C142.627 279.667 141.871 286.187 140.359 292.612C139.036 298.848 138.091 305.273 137.524 311.887V312.17C137.524 313.304 137.902 314.06 138.658 314.438C139.414 314.816 139.792 315.477 139.792 316.422C139.792 316.989 139.698 317.461 139.509 317.839C137.43 330.689 135.351 343.539 133.273 356.389C131.383 369.239 129.777 382.184 128.454 395.223H130.722C135.635 395.223 139.981 393.805 143.76 390.971C147.729 387.947 151.036 384.64 153.681 381.05H158.217C171.823 369.145 184.862 356.862 197.334 344.201C209.995 331.54 221.994 317.934 233.332 303.383C234.844 303.383 235.883 303.005 236.45 302.249C237.017 301.493 237.962 300.926 239.285 300.548C243.253 295.068 247.411 289.683 251.757 284.391C256.103 278.911 260.828 273.715 265.93 268.801C266.119 266.912 266.591 265.211 267.347 263.699C268.292 262.187 269.237 260.77 270.182 259.447C271.126 258.125 271.977 256.707 272.733 255.196C273.489 253.684 273.867 251.889 273.867 249.81C274.811 249.432 275.851 249.054 276.985 248.676C278.118 248.109 279.158 247.353 280.103 246.408C280.48 244.519 281.142 242.818 282.087 241.306C283.032 239.794 283.504 238.094 283.504 236.204C283.504 235.448 283.315 234.503 282.937 233.37C285.961 232.047 288.323 229.874 290.023 226.85C291.724 223.827 293.047 220.52 293.992 216.929C294.937 213.15 295.598 209.37 295.976 205.591C296.543 201.811 297.299 198.504 298.244 195.67ZM481.923 294.879C480.789 296.58 480.128 298.47 479.939 300.548C479.75 302.627 479.655 304.517 479.655 306.218C479.655 308.485 479.655 310.753 479.655 313.02C479.844 315.099 479.939 317.178 479.939 319.256V323.508C479.561 324.831 478.994 326.154 478.238 327.477C477.482 328.799 476.915 330.122 476.537 331.445C473.892 338.437 472.569 345.429 472.569 352.421V352.988C471.624 355.255 470.679 357.334 469.734 359.224C468.978 361.113 468.222 363.003 467.467 364.893C466.711 366.594 466.144 368.483 465.766 370.562C465.388 372.452 465.293 374.719 465.482 377.365C462.837 383.979 459.341 390.026 454.995 395.506C450.648 400.797 446.396 406.277 442.239 411.946C438.271 413.458 434.586 415.442 431.184 417.899C427.972 420.356 424.854 423.096 421.83 426.119C415.972 428.009 410.209 430.182 404.539 432.639C398.87 435.095 393.768 438.402 389.233 442.56C385.642 442.938 382.052 443.504 378.462 444.26C374.871 445.016 371.375 446.15 367.974 447.662H364.572C362.872 447.662 361.643 447.284 360.887 446.528C358.431 447.851 355.88 448.796 353.234 449.363C350.588 449.74 347.943 449.929 345.297 449.929C341.896 449.929 338.494 449.74 335.093 449.363C331.88 448.796 328.573 448.229 325.172 447.662C323.282 445.016 320.637 443.032 317.235 441.709C313.834 440.197 310.81 438.78 308.165 437.457C302.684 429.899 298.716 422.623 296.26 415.631C293.803 408.45 291.252 400.419 288.606 391.538C288.984 388.892 289.646 386.341 290.59 383.884C291.535 381.239 291.913 378.404 291.724 375.381C295.126 365.554 299.566 356.673 305.047 348.736C310.716 340.61 317.141 332.862 324.322 325.493C324.322 324.359 324.511 323.414 324.889 322.658C325.455 321.902 325.55 320.768 325.172 319.256C325.361 319.445 325.739 319.54 326.306 319.54C327.818 319.54 328.762 319.162 329.14 318.406C329.518 317.461 329.613 316.422 329.424 315.288C336.227 310.942 342.368 305.934 347.848 300.265C353.518 294.596 359.942 289.872 367.123 286.092C367.69 284.391 368.635 282.974 369.958 281.84C371.281 280.707 372.32 279.384 373.076 277.872C379.123 276.171 384.603 273.62 389.516 270.219C394.43 266.817 399.626 263.794 405.106 261.148C408.13 259.447 410.964 258.314 413.61 257.747C416.445 256.991 419.468 256.235 422.681 255.479C423.814 255.101 424.854 254.818 425.799 254.629C426.743 254.44 427.783 254.345 428.917 254.345C432.318 254.345 435.625 255.007 438.838 256.329C442.05 257.463 445.357 258.03 448.759 258.03C449.703 258.03 450.459 258.03 451.026 258.03C451.782 257.841 452.538 257.652 453.294 257.463C456.506 261.432 460.569 264.455 465.482 266.534C466.616 269.368 467.939 271.825 469.451 273.904C471.151 275.982 472.852 278.061 474.553 280.14C476.254 282.029 477.765 284.203 479.088 286.659C480.6 288.927 481.545 291.667 481.923 294.879ZM453.577 309.619C453.577 308.674 453.483 307.824 453.294 307.068C451.404 306.501 449.609 305.745 447.908 304.8C446.207 303.855 444.318 303.383 442.239 303.383C440.916 303.383 439.593 303.666 438.271 304.233C438.082 302.911 437.515 301.966 436.57 301.399C435.814 300.832 434.869 300.359 433.735 299.982C432.791 299.415 431.751 299.037 430.617 298.848C429.673 298.47 428.822 297.903 428.066 297.147C427.499 295.635 426.838 294.123 426.082 292.612C425.515 290.911 424.381 289.683 422.681 288.927C420.98 290.627 418.996 292.045 416.728 293.179C414.46 294.123 412.098 295.068 409.642 296.013C407.374 296.958 405.106 298.092 402.839 299.415C400.76 300.737 398.965 302.344 397.453 304.233H392.351C391.217 306.312 389.611 307.918 387.532 309.052C385.453 309.997 383.658 311.414 382.146 313.304C379.123 314.816 376.288 316.705 373.643 318.973C371.186 321.052 368.73 323.319 366.273 325.776C363.816 328.044 361.36 330.406 358.903 332.862C356.636 335.319 354.179 337.587 351.533 339.665C349.077 344.956 346.337 349.586 343.313 353.555C340.479 357.334 337.738 361.208 335.093 365.176C332.636 369.145 330.463 373.491 328.573 378.215C326.873 382.75 326.022 388.42 326.022 395.223V398.057C326.022 399.002 326.117 399.947 326.306 400.892C328.762 403.537 330.747 406.372 332.258 409.395C333.959 412.419 336.699 414.592 340.479 415.915C344.258 417.427 348.226 418.088 352.384 417.899C356.73 417.71 360.887 418.182 364.856 419.316C373.926 417.616 382.619 414.875 390.934 411.096C399.437 407.128 407.469 402.403 415.027 396.923C416.161 395.978 417.484 395.034 418.996 394.089C420.507 392.955 421.736 391.821 422.681 390.687C423.625 389.742 424.381 388.703 424.948 387.569C425.704 386.435 426.46 385.396 427.216 384.451C428.728 381.995 430.428 379.538 432.318 377.081C434.208 374.625 436.192 372.357 438.271 370.278C439.216 366.121 440.444 362.153 441.956 358.373C443.467 354.405 444.979 350.531 446.491 346.752C448.003 342.972 449.231 339.098 450.176 335.13C451.31 331.162 451.877 327.004 451.877 322.658C451.877 321.713 451.782 320.674 451.593 319.54C451.593 318.406 451.499 317.367 451.31 316.422C452.821 314.343 453.577 312.076 453.577 309.619ZM655.964 386.152C655.964 388.231 655.209 389.837 653.697 390.971C652.185 391.916 651.429 393.238 651.429 394.939C651.429 395.695 651.807 396.64 652.563 397.774C649.917 397.774 648.122 398.624 647.177 400.325C646.232 402.025 645.288 403.915 644.343 405.994H640.658C639.713 405.994 638.957 406.183 638.39 406.561C637.823 406.939 637.256 407.506 636.689 408.261C636.312 408.828 635.745 409.773 634.989 411.096C631.398 411.852 627.902 413.08 624.501 414.781C621.288 416.293 618.076 417.993 614.863 419.883C611.84 421.584 608.722 423.379 605.509 425.269C602.297 426.97 598.99 428.387 595.588 429.521C593.888 432.355 591.431 434.623 588.219 436.324H587.368C586.423 436.513 585.573 436.418 584.817 436.04C584.25 435.473 583.494 435.19 582.549 435.19C581.983 435.19 581.605 435.284 581.416 435.473C575.747 439.253 569.416 441.142 562.424 441.142C560.534 441.142 558.739 441.048 557.038 440.859C555.338 440.481 553.543 440.292 551.653 440.292C551.086 440.292 550.708 440.481 550.519 440.859L549.952 441.993C549.763 442.371 549.48 442.749 549.102 443.126C548.913 443.504 548.251 443.693 547.118 443.693C545.039 443.693 542.96 443.41 540.882 442.843C538.803 442.276 536.63 442.182 534.362 442.56C530.016 440.103 526.614 437.741 524.158 435.473C521.701 433.206 519.433 429.804 517.355 425.269C516.41 423.19 515.087 421.206 513.386 419.316C511.875 417.427 510.741 415.348 509.985 413.08C509.796 412.324 509.512 411.002 509.135 409.112C508.757 407.033 508.379 404.86 508.001 402.592C507.623 400.325 507.245 398.152 506.867 396.073C506.678 393.994 506.583 392.577 506.583 391.821C506.583 389.553 506.678 387.38 506.867 385.302C507.245 383.034 507.623 380.766 508.001 378.499C509.135 371.318 509.89 364.137 510.268 356.956C510.835 349.586 512.441 342.5 515.087 335.697C514.709 333.618 514.52 331.634 514.52 329.744V323.508C514.52 319.918 514.048 316.894 513.103 314.438C514.615 311.981 515.371 309.241 515.371 306.218C515.371 302.816 513.953 300.832 511.119 300.265V299.415C511.119 295.446 509.796 292.328 507.15 290.061C507.15 283.447 508.757 278.533 511.969 275.321C515.371 271.919 519.811 268.99 525.291 266.534C526.047 265.4 526.331 264.455 526.142 263.699C527.465 264.077 528.693 264.455 529.827 264.833C530.961 265.211 532.094 265.4 533.228 265.4C535.118 265.4 536.819 265.117 538.33 264.55C538.897 266.817 540.315 268.235 542.582 268.801C545.039 269.179 547.023 269.746 548.535 270.502V274.187C548.535 280.045 549.952 285.62 552.787 290.911C552.031 292.423 551.558 294.029 551.369 295.73C551.18 297.43 551.086 299.037 551.086 300.548C551.086 302.816 551.18 305.084 551.369 307.351C551.558 309.619 551.653 311.792 551.653 313.871C551.653 316.138 551.369 318.406 550.802 320.674C550.425 322.941 549.385 324.926 547.684 326.626C547.495 329.083 547.307 331.917 547.118 335.13C547.118 338.154 546.929 341.272 546.551 344.484C546.362 347.697 545.889 350.815 545.133 353.838C544.377 356.862 543.244 359.318 541.732 361.208C541.543 364.042 541.354 366.971 541.165 369.995C541.165 372.83 541.165 375.57 541.165 378.215C541.165 382.373 541.354 387.286 541.732 392.955C542.299 398.624 543.622 403.348 545.7 407.128C546.645 408.639 548.44 409.773 551.086 410.529C553.92 411.285 556.188 411.663 557.889 411.663C559.968 411.663 562.046 411.379 564.125 410.813C566.393 410.057 567.999 408.828 568.944 407.128C570.077 407.317 570.833 407.884 571.211 408.828C571.589 409.773 572.251 410.529 573.195 411.096C583.967 406.561 594.738 402.214 605.509 398.057C616.281 393.9 626.863 389.081 637.256 383.601C638.768 384.357 640.374 384.735 642.075 384.735C643.965 384.735 645.854 384.546 647.744 384.168C649.634 383.79 651.524 383.601 653.413 383.601H655.397C655.775 384.735 655.964 385.585 655.964 386.152ZM864.871 438.308C864.304 440.953 863.076 443.126 861.186 444.827C859.485 446.339 857.407 447.567 854.95 448.512C852.493 449.457 849.942 450.118 847.297 450.496C844.84 450.685 842.573 450.78 840.494 450.78C839.549 450.78 838.604 450.78 837.659 450.78C836.903 450.591 836.053 450.496 835.108 450.496C834.163 450.496 833.691 450.969 833.691 451.914C833.691 452.858 833.219 453.52 832.274 453.898C831.329 453.52 830.384 453.236 829.439 453.047C828.494 452.858 827.549 452.764 826.605 452.764C825.282 452.764 823.959 452.858 822.636 453.047C821.502 453.236 820.369 453.331 819.235 453.331C817.723 453.331 816.589 453.142 815.833 452.764C815.266 452.386 814.699 452.008 814.133 451.63C813.755 451.063 813.282 450.496 812.715 449.929C812.337 449.363 811.676 448.89 810.731 448.512C809.408 447.945 808.274 447.851 807.33 448.229C806.574 448.607 805.345 448.04 803.645 446.528C801.377 444.638 799.393 442.371 797.692 439.725C796.18 436.89 794.669 433.961 793.157 430.938C791.645 427.914 790.039 424.891 788.338 421.867C786.637 418.844 784.653 416.198 782.386 413.931H780.118C776.716 413.931 774.354 415.348 773.031 418.182C772.087 417.616 771.142 416.954 770.197 416.198C769.252 415.253 768.213 414.498 767.079 413.931C762.733 415.253 758.197 416.387 753.473 417.332C748.749 418.277 744.025 418.749 739.3 418.749H735.332C734.198 418.749 732.97 418.56 731.647 418.182C729.757 418.938 728.057 419.883 726.545 421.017C725.033 421.962 723.332 422.434 721.443 422.434C720.309 422.434 718.986 422.056 717.474 421.3C716.34 421.3 715.773 421.773 715.773 422.718C715.962 423.663 715.396 424.135 714.073 424.135H711.522C708.876 424.135 706.23 424.229 703.585 424.418C701.128 424.607 698.577 424.702 695.932 424.702C692.341 424.702 688.656 424.229 684.877 423.285C683.932 423.852 682.893 424.135 681.759 424.135C681.003 424.513 680.436 425.174 680.058 426.119C679.68 426.875 679.302 427.631 678.924 428.387C678.546 428.954 677.979 429.521 677.224 430.088C676.657 430.465 675.806 430.56 674.672 430.371C674.295 432.639 673.35 434.434 671.838 435.757C670.326 437.079 669.57 439.064 669.57 441.709C667.492 442.843 665.791 444.26 664.468 445.961C663.145 447.662 661.822 449.457 660.5 451.347C659.177 453.236 657.76 455.032 656.248 456.732C654.925 458.433 653.224 459.756 651.146 460.701C650.201 461.835 649.917 463.63 650.295 466.086C648.217 467.787 645.666 469.299 642.642 470.622C639.618 471.944 636.784 472.606 634.138 472.606C628.658 472.606 624.879 469.677 622.8 463.819C622.8 461.929 622.989 459.945 623.367 457.866C623.556 455.599 623.934 453.52 624.501 451.63C625.068 449.551 625.918 447.756 627.052 446.245C628.186 444.544 629.792 443.315 631.871 442.56C631.871 440.859 631.304 439.725 630.17 439.158C629.036 438.402 628.564 437.174 628.753 435.473C633.855 433.017 638.296 429.804 642.075 425.836C645.854 421.867 649.256 417.71 652.279 413.364C655.492 408.828 658.704 404.293 661.917 399.758C665.129 395.223 668.72 391.16 672.688 387.569V381.617C678.357 375.57 682.042 368.767 683.743 361.208C685.822 360.83 687.144 359.885 687.711 358.373C688.467 356.862 688.845 355.066 688.845 352.988C689.79 352.988 690.357 352.61 690.546 351.854C690.924 350.909 691.774 350.626 693.097 351.003C694.798 346.468 696.687 342.311 698.766 338.531C700.845 334.752 702.924 330.973 705.002 327.193C707.081 323.225 708.876 319.162 710.388 315.005C712.089 310.847 713.317 306.218 714.073 301.115C716.718 300.926 718.136 299.698 718.325 297.43C718.703 294.974 719.08 292.801 719.458 290.911C722.293 288.265 724.372 285.147 725.694 281.557C727.206 277.966 728.529 274.282 729.663 270.502C730.797 266.534 732.025 262.66 733.348 258.88C734.859 254.912 736.938 251.416 739.584 248.393V247.542C739.584 246.597 739.206 246.031 738.45 245.842C737.694 245.464 737.316 244.802 737.316 243.857C737.505 243.668 737.6 243.479 737.6 243.29C739.867 242.346 741.568 240.834 742.702 238.755C743.836 236.488 745.536 234.881 747.804 233.936C751.772 237.149 755.268 239.133 758.292 239.889C761.315 240.456 765.284 240.928 770.197 241.306C772.654 243.952 773.976 247.164 774.165 250.944C774.543 254.534 775.205 258.125 776.149 261.715C777.661 267.762 779.267 273.715 780.968 279.573C782.858 285.242 784.275 291.1 785.22 297.147C785.787 300.737 786.826 304.139 788.338 307.351C789.85 310.564 790.889 313.871 791.456 317.272C791.834 319.918 791.834 322.941 791.456 326.343C791.078 329.555 791.456 332.39 792.59 334.847L794.574 339.382C795.519 341.46 796.275 343.634 796.842 345.901C797.598 348.169 798.259 350.437 798.826 352.704C800.338 358.373 801.66 364.515 802.794 371.129C804.117 377.554 806.101 383.412 808.747 388.703C809.692 390.593 811.109 391.916 812.999 392.671C815.077 393.427 817.345 393.994 819.802 394.372C822.258 394.561 824.62 394.656 826.888 394.656C829.345 394.467 831.423 394.372 833.124 394.372H835.959C837.092 394.372 838.226 394.561 839.36 394.939C840.116 396.451 840.494 397.774 840.494 398.907C840.494 401.175 839.738 402.97 838.226 404.293C836.714 405.616 835.959 407.128 835.959 408.828C835.959 409.773 836.337 410.813 837.092 411.946C836.337 411.757 835.203 411.663 833.691 411.663C829.345 411.663 825.093 412.419 820.935 413.931C822.447 417.143 824.431 419.883 826.888 422.151C829.534 424.229 832.274 426.214 835.108 428.103C836.998 426.592 838.982 425.836 841.061 425.836C843.328 425.836 845.407 426.403 847.297 427.536C849.375 428.481 851.549 428.954 853.816 428.954C855.517 428.954 856.745 428.67 857.501 428.103C859.013 429.804 860.241 431.599 861.186 433.489C862.131 435.19 863.359 436.796 864.871 438.308ZM776.149 392.955C775.772 389.742 775.11 387.475 774.165 386.152C773.409 384.64 772.748 382.845 772.181 380.766C771.425 378.121 770.858 375.286 770.48 372.263C770.291 369.239 769.913 366.31 769.347 363.476C768.024 357.051 766.512 350.626 764.811 344.201C763.3 337.776 761.315 331.54 758.859 325.493C759.615 324.359 759.993 323.319 759.993 322.374V321.524C758.292 319.634 757.063 317.367 756.308 314.721C755.552 311.887 754.796 309.147 754.04 306.501C753.473 303.666 752.623 301.115 751.489 298.848C750.544 296.391 748.938 294.407 746.67 292.895C746.103 294.029 745.82 295.352 745.82 296.864C745.82 298.186 745.914 299.415 746.103 300.548C746.481 301.682 746.67 302.911 746.67 304.233C744.78 305.178 743.363 306.69 742.418 308.769C741.662 310.658 740.34 312.17 738.45 313.304C736.938 319.351 734.765 325.115 731.93 330.595C729.096 335.886 726.072 341.177 722.86 346.468C719.836 351.759 716.907 357.145 714.073 362.625C711.238 367.916 708.971 373.491 707.27 379.349C704.813 381.05 703.112 383.223 702.168 385.869C701.412 388.514 701.034 391.16 701.034 393.805C702.735 394.75 704.624 395.317 706.703 395.506C708.971 395.506 711.144 395.506 713.222 395.506C715.301 395.506 717.285 395.695 719.175 396.073C721.065 396.451 722.765 397.396 724.277 398.907C726.734 398.152 729.379 397.679 732.214 397.49C735.237 397.112 737.694 396.262 739.584 394.939C743.363 396.262 747.426 396.923 751.772 396.923C754.04 396.923 756.213 396.734 758.292 396.356C760.559 395.978 762.733 395.506 764.811 394.939C766.512 395.317 767.835 395.978 768.78 396.923C769.724 397.679 771.142 397.963 773.031 397.774C773.976 397.018 774.543 396.262 774.732 395.506C774.921 394.561 775.394 393.711 776.149 392.955ZM1219.47 409.679C1219.1 412.513 1218.06 414.686 1216.36 416.198C1214.84 417.71 1213.05 419.127 1210.97 420.45C1210.03 420.261 1209.08 420.167 1208.14 420.167C1207.38 419.978 1206.53 419.883 1205.58 419.883C1199.73 419.694 1194.15 420.45 1188.86 422.151C1183.76 423.852 1178.47 425.08 1172.99 425.836C1171.1 426.214 1169.3 426.403 1167.6 426.403C1166.09 426.214 1164.48 426.308 1162.78 426.686C1156.74 427.631 1150.31 428.387 1143.51 428.954C1136.7 429.521 1129.9 430.277 1123.1 431.221C1116.3 431.977 1109.59 433.017 1102.97 434.339C1096.55 435.473 1090.5 437.174 1084.83 439.442C1084.27 439.064 1083.7 438.686 1083.13 438.308C1082.56 437.741 1081.9 437.457 1081.15 437.457C1079.26 437.457 1077.46 437.741 1075.76 438.308C1074.06 438.875 1072.36 439.064 1070.66 438.875C1068.77 440.008 1066.69 440.859 1064.42 441.426C1062.34 441.804 1060.17 442.182 1057.9 442.56C1055.83 442.749 1053.75 443.126 1051.67 443.693C1049.59 444.26 1047.61 445.3 1045.72 446.811C1044.2 446.056 1042.31 445.678 1040.05 445.678C1037.97 445.489 1036.55 444.733 1035.79 443.41C1031.45 445.489 1026.82 446.811 1021.91 447.378C1017.18 447.945 1012.36 448.134 1007.45 447.945C1004.24 447.756 1000.55 447.284 996.394 446.528C992.237 445.772 988.08 444.733 983.922 443.41C979.765 441.898 975.891 440.197 972.301 438.308C968.71 436.229 965.97 433.772 964.08 430.938C962.758 429.048 961.813 426.97 961.246 424.702C960.679 422.434 959.356 420.734 957.278 419.6C957.844 415.253 958.506 411.002 959.262 406.844C960.018 402.687 960.773 398.435 961.529 394.089C965.309 390.876 968.899 387.475 972.301 383.884C975.702 380.294 978.915 376.514 981.938 372.546C985.529 370.845 988.836 368.767 991.859 366.31C995.072 363.853 998.19 361.397 1001.21 358.94C1004.43 356.295 1007.54 353.744 1010.57 351.287C1013.78 348.83 1017.18 346.657 1020.77 344.767C1021.34 343.445 1022.09 342.405 1023.04 341.649C1024.17 340.705 1025.31 339.854 1026.44 339.098C1027.57 338.154 1028.61 337.209 1029.56 336.264C1030.5 335.13 1031.16 333.807 1031.54 332.295C1038.16 328.327 1043.92 323.319 1048.83 317.272C1053.75 311.225 1056.96 304.422 1058.47 296.864C1055.26 294.218 1051.57 292.517 1047.42 291.761C1043.45 290.816 1039.29 290.155 1034.94 289.777C1031.16 289.588 1027.2 289.588 1023.04 289.777C1019.07 289.966 1015.01 289.872 1010.85 289.494C1006.69 290.816 1002.35 291.667 997.812 292.045C993.465 292.423 989.119 292.801 984.773 293.179C980.426 293.368 976.08 293.934 971.734 294.879C967.576 295.635 963.514 297.147 959.545 299.415C958.789 299.415 958.033 299.32 957.278 299.131C956.711 298.942 956.049 298.848 955.293 298.848C949.246 298.659 943.577 299.887 938.286 302.533C932.995 304.989 927.798 307.446 922.696 309.902C922.318 310.658 922.129 311.225 922.129 311.603C922.129 312.737 922.318 313.871 922.696 315.005C923.263 315.95 923.546 316.989 923.546 318.123C923.357 318.312 923.263 318.501 923.263 318.69C923.263 318.879 923.168 319.068 922.979 319.256C922.79 320.201 922.507 321.052 922.129 321.808C921.94 322.563 921.657 323.414 921.279 324.359C919.2 330.406 918.066 336.358 917.877 342.216C917.688 347.13 917.688 351.948 917.877 356.673C918.066 361.397 918.066 366.216 917.877 371.129C917.499 377.176 916.554 382.845 915.043 388.136C915.988 392.671 916.838 397.49 917.594 402.592C918.35 407.506 919.294 412.419 920.428 417.332C921.562 422.245 922.885 427.064 924.397 431.788C926.097 436.324 928.271 440.67 930.916 444.827C930.727 445.205 930.822 445.489 931.2 445.678C931.578 445.867 931.956 445.961 932.333 445.961H934.601C935.546 445.961 935.924 446.339 935.735 447.095C936.113 447.662 936.396 448.229 936.585 448.796C936.774 449.174 937.152 449.551 937.719 449.929C938.097 450.496 938.097 451.252 937.719 452.197C937.53 455.976 936.585 459.472 934.885 462.685C933.184 465.897 932.144 469.393 931.767 473.173C929.499 473.74 927.42 474.023 925.531 474.023C922.318 473.834 919.483 472.889 917.027 471.189C914.57 469.677 912.303 467.787 910.224 465.519C908.145 463.252 906.161 460.984 904.271 458.717C902.382 456.26 900.303 454.181 898.035 452.481C896.713 447.189 895.39 441.331 894.067 434.906C892.933 428.481 890.949 423.001 888.114 418.466C888.87 416.765 889.248 414.686 889.248 412.23C889.437 408.45 889.059 404.766 888.114 401.175C887.359 397.396 887.17 393.616 887.547 389.837C887.547 387.758 887.736 385.68 888.114 383.601C888.681 381.522 889.059 379.444 889.248 377.365C889.437 374.152 889.059 371.034 888.114 368.011C887.359 364.987 887.075 361.869 887.264 358.657C887.453 357.145 887.736 355.728 888.114 354.405C888.681 352.893 889.437 351.57 890.382 350.437C889.437 348.169 889.154 345.996 889.532 343.917C889.721 340.705 890.099 337.681 890.666 334.847C891.232 332.012 891.61 329.177 891.799 326.343C891.799 324.831 891.705 323.414 891.516 322.091C891.327 320.579 891.043 319.162 890.666 317.839L888.114 316.989C886.981 316.989 885.847 317.272 884.713 317.839C883.768 318.406 882.918 319.068 882.162 319.823C881.406 320.579 880.745 321.241 880.178 321.808C879.611 322.186 879.044 322.374 878.477 322.374C878.099 322.374 877.627 322.374 877.06 322.374C876.682 322.186 876.304 322.091 875.926 322.091C875.548 322.091 874.792 322.469 873.658 323.225C872.713 323.981 871.485 324.831 869.973 325.776C868.65 326.532 867.328 327.382 866.005 328.327C864.682 329.083 863.643 329.555 862.887 329.744C860.808 329.366 859.107 328.705 857.785 327.76C856.651 326.626 855.517 325.587 854.383 324.642C853.438 323.508 852.399 322.563 851.265 321.808C850.131 320.863 848.714 320.485 847.013 320.674C846.446 319.54 846.163 318.312 846.163 316.989C845.974 315.666 845.974 314.343 846.163 313.02V308.485C847.486 306.029 849.281 304.044 851.549 302.533C853.627 300.832 855.895 299.415 858.352 298.281L865.721 294.879C868.178 293.746 870.446 292.328 872.524 290.627H875.075C878.477 290.816 881.406 290.155 883.863 288.643C886.508 287.132 888.965 285.431 891.232 283.541C893.5 281.462 895.768 279.384 898.035 277.305C900.492 275.226 903.138 273.62 905.972 272.486C908.051 273.431 910.224 274.282 912.492 275.037C914.759 275.604 917.121 275.982 919.578 276.171C922.035 276.171 924.586 275.793 927.231 275.037C929.877 274.282 931.956 272.864 933.467 270.786C934.412 271.164 935.168 271.447 935.735 271.636C936.491 271.636 937.341 271.636 938.286 271.636C941.121 271.825 943.955 271.447 946.79 270.502C949.624 269.368 952.364 268.046 955.01 266.534C958.789 266.723 962.474 266.534 966.065 265.967C969.844 265.211 973.529 264.455 977.119 263.699C980.899 262.943 984.584 262.282 988.174 261.715C991.954 260.959 995.733 260.676 999.512 260.865C1005.75 261.054 1011.89 260.487 1017.94 259.164C1023.98 257.841 1030.13 257.369 1036.36 257.747C1040.71 257.936 1044.96 258.314 1049.12 258.88C1053.46 259.258 1057.81 259.353 1062.16 259.164C1064.61 260.298 1066.79 261.337 1068.68 262.282C1070.75 263.038 1073.31 263.227 1076.33 262.849C1082.38 267.951 1087.86 273.904 1092.77 280.707V285.525C1092.58 289.872 1091.82 294.123 1090.5 298.281C1089.18 302.438 1087.57 306.595 1085.68 310.753C1083.98 314.721 1082.09 318.69 1080.01 322.658C1077.94 326.437 1075.95 330.217 1074.06 333.996C1061.78 345.145 1049.5 356.2 1037.21 367.16C1024.93 378.121 1012.27 388.703 999.229 398.907C998.851 400.797 998.284 402.498 997.528 404.01C996.961 405.521 996.583 407.128 996.394 408.828C996.394 409.773 996.489 410.529 996.678 411.096C998.001 411.474 999.134 412.23 1000.08 413.364C1001.21 414.309 1001.59 415.631 1001.21 417.332H1003.76C1004.71 417.332 1005.18 417.71 1005.18 418.466L1009.72 418.749C1016.9 419.127 1024.08 418.938 1031.26 418.182C1038.44 417.427 1045.62 416.576 1052.8 415.631C1060.17 414.686 1067.45 413.836 1074.63 413.08C1081.81 412.135 1088.99 411.568 1096.17 411.379C1097.87 410.813 1099.67 410.34 1101.56 409.962C1103.45 409.584 1105.15 408.828 1106.66 407.695H1107.51C1108.83 407.695 1109.78 408.073 1110.34 408.828C1111.1 409.584 1112.14 410.057 1113.46 410.246C1114.41 410.246 1115.35 410.057 1116.3 409.679C1117.43 409.301 1118.56 409.017 1119.7 408.828C1122.34 408.073 1125.08 407.6 1127.92 407.411C1130.94 407.222 1133.87 406.939 1136.7 406.561C1147.67 405.616 1158.53 405.049 1169.3 404.86C1180.07 404.482 1190.84 403.065 1201.62 400.608C1202.56 401.931 1203.88 402.876 1205.58 403.443C1207.29 403.821 1209.08 404.293 1210.97 404.86C1212.86 405.238 1214.56 405.71 1216.07 406.277C1217.77 406.844 1218.91 407.978 1219.47 409.679ZM1200.2 420.167C1199.25 421.678 1198.12 423.096 1196.8 424.418C1195.47 425.552 1194.25 426.781 1193.11 428.103C1191.79 428.67 1190.28 428.954 1188.58 428.954C1187.07 428.954 1185.55 428.954 1184.04 428.954C1182.72 428.765 1181.4 428.765 1180.07 428.954C1178.94 428.954 1177.99 429.332 1177.24 430.088C1175.73 429.71 1174.59 429.048 1173.84 428.103C1173.08 426.97 1171.76 426.308 1169.87 426.119C1169.11 425.93 1168.36 425.93 1167.6 426.119C1164.77 422.907 1162.12 419.505 1159.66 415.915C1157.4 412.324 1155.22 408.923 1153.15 405.71C1152.96 398.718 1152.39 391.632 1151.44 384.451C1151.26 382.75 1150.97 381.05 1150.59 379.349C1150.22 377.648 1149.93 376.042 1149.74 374.53C1149.74 372.641 1149.84 370.845 1150.03 369.145C1150.41 367.255 1150.69 365.554 1150.88 364.042C1151.63 358.562 1152.48 353.177 1153.43 347.885C1154.37 342.594 1155.22 337.209 1155.98 331.729C1156.74 326.815 1157.11 321.713 1157.11 316.422C1157.11 310.942 1156.26 305.84 1154.56 301.115L1154.28 299.698C1154.66 298.186 1155.03 296.958 1155.41 296.013C1155.98 294.879 1156.36 293.651 1156.55 292.328C1156.92 290.25 1156.45 288.738 1155.13 287.793C1155.7 286.281 1156.64 285.336 1157.96 284.958C1159.29 284.391 1160.04 283.258 1160.23 281.557C1160.42 280.801 1160.42 280.045 1160.23 279.289C1161.74 278.722 1163.26 278.25 1164.77 277.872C1166.47 277.305 1168.07 277.211 1169.59 277.589C1172.04 277.966 1174.22 278.817 1176.11 280.14C1177.99 281.273 1179.79 282.596 1181.49 284.108C1184.51 293.179 1185.74 302.816 1185.18 313.02C1184.61 323.036 1183.66 333.146 1182.34 343.35C1181.02 353.555 1180.17 363.57 1179.79 373.396C1179.41 383.034 1180.92 392.01 1184.33 400.325L1184.89 400.608C1185.84 400.797 1186.59 400.514 1187.16 399.758C1187.73 398.813 1188.48 398.435 1189.43 398.624C1190.18 399.002 1190.66 399.191 1190.84 399.191C1191.6 402.97 1192.83 406.561 1194.53 409.962C1196.23 413.364 1198.12 416.765 1200.2 420.167ZM1377.07 423.285C1377.07 426.497 1376.22 429.332 1374.52 431.788C1373.01 434.056 1372.45 436.89 1372.82 440.292C1370.18 441.804 1368 443.788 1366.3 446.245C1364.6 448.701 1363 451.252 1361.48 453.898C1349.01 462.024 1335.6 468.543 1321.23 473.456C1307.06 478.558 1292.42 481.11 1277.3 481.11C1276.35 481.11 1275.5 480.637 1274.75 479.692C1273.99 478.936 1273.24 478.086 1272.48 477.141C1271.72 476.196 1270.87 475.251 1269.93 474.307C1269.17 473.551 1268.23 473.173 1267.09 473.173C1265.77 473.173 1264.73 473.456 1263.98 474.023C1263.98 473.645 1263.98 473.267 1263.98 472.889C1264.17 472.7 1264.26 472.417 1264.26 472.039C1264.26 469.771 1263.98 467.409 1263.41 464.953C1262.84 462.685 1262.56 460.417 1262.56 458.15C1262.56 455.504 1263.03 453.331 1263.98 451.63H1267.38C1269.27 451.63 1271.06 451.536 1272.76 451.347C1274.65 450.969 1276.64 450.78 1278.72 450.78C1280.79 450.78 1282.68 451.347 1284.39 452.481C1294.78 452.103 1304.6 450.213 1313.86 446.811C1323.31 443.221 1332.86 439.725 1342.49 436.324C1344.01 434.245 1344.86 431.977 1345.04 429.521C1345.42 426.875 1346.18 424.418 1347.31 422.151C1342.4 417.993 1337.39 414.781 1332.29 412.513C1327.38 410.057 1321.61 409.206 1315 409.962C1311.03 407.506 1306.78 406.088 1302.24 405.71C1297.9 405.332 1293.46 404.766 1288.92 404.01C1287.79 403.821 1286.56 403.632 1285.24 403.443C1284.1 403.065 1282.87 402.876 1281.55 402.876C1280.61 402.876 1279.66 403.159 1278.72 403.726C1277.96 404.104 1277.77 404.766 1278.15 405.71C1277.2 404.199 1275.88 403.348 1274.18 403.159C1272.67 402.781 1271.35 402.025 1270.21 400.892C1264.17 400.514 1258.87 399.474 1254.34 397.774C1249.8 395.884 1244.8 393.805 1239.32 391.538C1237.8 390.971 1236.29 390.593 1234.78 390.404C1233.46 390.026 1232.13 389.459 1230.81 388.703C1227.41 387.002 1224.67 384.735 1222.59 381.9C1220.51 379.066 1218.91 375.948 1217.77 372.546C1216.45 368.956 1215.51 365.271 1214.94 361.491C1214.37 357.712 1213.8 354.216 1213.24 351.003C1214.94 347.98 1216.54 344.862 1218.06 341.649C1219.38 338.437 1220.51 335.036 1221.46 331.445C1222.59 330.878 1223.73 330.406 1224.86 330.028C1225.99 329.65 1227.22 329.177 1228.54 328.611C1228.36 328.233 1228.26 327.76 1228.26 327.193C1228.26 326.248 1228.54 325.304 1229.11 324.359C1229.87 323.414 1230.06 322.469 1229.68 321.524C1233.84 317.745 1237.8 313.871 1241.58 309.902C1245.55 305.745 1248.95 301.21 1251.79 296.297C1254.62 295.352 1256.89 293.934 1258.59 292.045C1260.29 290.155 1261.99 288.265 1263.69 286.376C1265.39 284.297 1267.28 282.502 1269.36 280.99C1271.44 279.289 1274.09 278.25 1277.3 277.872C1278.05 276.549 1279.09 275.51 1280.42 274.754C1281.74 273.809 1283.06 272.959 1284.39 272.203C1285.71 271.447 1286.94 270.597 1288.07 269.652C1289.2 268.707 1290.05 267.384 1290.62 265.683C1293.64 265.683 1296.38 265.117 1298.84 263.983C1301.49 262.849 1304.04 261.621 1306.49 260.298C1308.95 258.975 1311.41 257.747 1313.86 256.613C1316.51 255.479 1319.34 254.912 1322.37 254.912C1323.12 254.912 1323.88 255.007 1324.64 255.196C1325.39 255.196 1326.24 255.29 1327.19 255.479C1328.51 256.802 1329.36 258.408 1329.74 260.298C1330.3 261.998 1330.68 263.888 1330.87 265.967C1331.06 268.046 1331.16 270.124 1331.16 272.203C1331.34 274.282 1331.72 276.171 1332.29 277.872C1330.59 281.084 1328.7 284.297 1326.62 287.509C1324.73 290.722 1322.18 293.179 1318.97 294.879H1318.4C1317.08 295.068 1315.85 294.785 1314.71 294.029C1313.58 293.273 1312.26 292.895 1310.75 292.895C1309.8 292.895 1309.05 293.179 1308.48 293.746L1307.06 295.163C1306.68 295.541 1306.12 295.919 1305.36 296.297C1304.79 296.675 1303.94 296.675 1302.81 296.297C1300.16 297.241 1299.12 298.848 1299.69 301.115C1296.1 301.493 1293.08 302.627 1290.62 304.517C1288.16 306.218 1285.9 308.202 1283.82 310.469C1281.74 312.548 1279.66 314.532 1277.58 316.422C1275.5 318.123 1273.05 319.068 1270.21 319.256C1267 324.926 1263.03 329.933 1258.31 334.28C1253.77 338.626 1249.99 343.539 1246.97 349.019C1247.54 350.531 1247.91 352.137 1248.1 353.838C1248.29 355.539 1248.58 357.334 1248.95 359.224C1250.65 361.491 1252.64 363.476 1254.91 365.176C1257.36 366.877 1259.72 368.578 1261.99 370.278H1262.84C1266.62 370.278 1270.12 371.034 1273.33 372.546C1276.54 373.869 1279.94 374.53 1283.53 374.53C1285.42 374.53 1287.03 374.152 1288.35 373.396C1293.27 374.53 1298.09 375.475 1302.81 376.231C1307.72 376.987 1312.64 377.554 1317.55 377.932C1320.01 378.31 1322.46 378.499 1324.92 378.499C1327.56 378.499 1330.02 378.782 1332.29 379.349C1334.37 379.916 1336.45 380.672 1338.53 381.617C1340.6 382.373 1342.68 383.223 1344.76 384.168C1349.11 386.057 1353.17 388.136 1356.95 390.404C1360.92 392.671 1364.41 395.412 1367.44 398.624C1370.46 401.648 1372.82 405.238 1374.52 409.395C1376.22 413.364 1377.07 417.993 1377.07 423.285ZM1570.67 326.626C1569.92 328.516 1569.16 330.311 1568.41 332.012C1567.65 333.713 1567.08 335.602 1566.71 337.681C1565.38 338.626 1563.87 339.382 1562.17 339.949C1560.66 340.327 1559.05 340.799 1557.35 341.366C1555.65 341.744 1554.05 342.311 1552.53 343.067C1551.21 343.634 1550.17 344.579 1549.42 345.901C1548.85 348.736 1548.57 351.381 1548.57 353.838C1548.57 357.051 1549.13 359.791 1550.27 362.058C1549.7 363.759 1549.32 365.554 1549.13 367.444C1548.94 369.334 1548.85 371.129 1548.85 372.83C1548.85 379.066 1549.6 385.302 1551.12 391.538C1552.63 397.585 1553.48 403.726 1553.67 409.962C1553.67 410.907 1553.57 411.946 1553.38 413.08C1553.2 414.214 1553.1 415.253 1553.1 416.198C1553.1 420.167 1554.61 422.812 1557.64 424.135C1557.07 425.08 1556.79 425.93 1556.79 426.686C1556.79 428.198 1556.97 429.521 1557.35 430.654C1557.73 431.788 1557.83 433.017 1557.64 434.339C1558.58 436.229 1559.53 437.93 1560.47 439.442C1561.42 440.764 1562.08 442.465 1562.45 444.544C1561.13 447.189 1559.53 449.646 1557.64 451.914C1555.75 453.992 1554.42 456.638 1553.67 459.85C1552.91 459.661 1552.06 459.567 1551.12 459.567C1549.79 459.567 1548.75 459.85 1548 460.417C1547.24 460.984 1546.58 461.646 1546.01 462.401C1545.64 463.346 1545.16 464.197 1544.6 464.953C1544.03 465.897 1543.27 466.559 1542.33 466.937H1541.48C1540.53 467.126 1539.68 467.031 1538.93 466.653C1538.36 466.464 1537.79 466.37 1537.23 466.37C1536.85 466.37 1536.09 466.559 1534.96 466.937C1533.45 465.047 1532.41 462.779 1531.84 460.134C1531.27 457.677 1530.99 455.221 1530.99 452.764C1530.99 450.118 1531.37 447.756 1532.13 445.678C1530.05 443.977 1528.72 441.426 1528.16 438.024C1527.78 434.623 1527.31 431.788 1526.74 429.521C1525.23 422.529 1523.43 415.726 1521.35 409.112C1519.46 402.498 1518.33 395.695 1517.95 388.703C1517.76 386.057 1517.67 383.506 1517.67 381.05V366.31C1517.67 363.853 1517.76 361.491 1517.95 359.224C1517.95 357.523 1518.05 355.917 1518.24 354.405C1518.61 352.704 1518.8 351.003 1518.8 349.303C1518.8 347.035 1518.05 344.862 1516.54 342.783C1503.12 343.35 1490.36 345.807 1478.27 350.153C1466.36 354.31 1454.46 359.318 1442.55 365.176C1441.8 369.523 1441.32 373.774 1441.14 377.932C1440.95 382.089 1440.85 386.341 1440.85 390.687V403.159C1440.85 407.884 1441.04 411.852 1441.42 415.064C1442.36 420.545 1445.1 424.796 1449.64 427.82C1454.36 430.654 1459.09 432.828 1463.81 434.339C1463.62 437.174 1463.06 439.631 1462.11 441.709C1461.17 443.599 1459.94 445.394 1458.43 447.095C1457.1 448.607 1455.59 450.118 1453.89 451.63C1452.19 453.142 1450.49 454.843 1448.79 456.732C1447.28 455.788 1445.77 455.126 1444.25 454.748C1442.74 454.37 1441.14 454.181 1439.44 454.181C1437.73 453.992 1436.03 453.803 1434.33 453.614C1432.63 453.425 1430.93 453.047 1429.23 452.481L1422.99 443.977C1420.92 441.142 1418.65 438.308 1416.19 435.473V432.922C1416.19 427.82 1415.25 422.907 1413.36 418.182C1411.47 413.458 1410.05 408.639 1409.11 403.726C1409.67 402.025 1410.05 400.325 1410.24 398.624C1410.43 396.923 1410.52 395.128 1410.52 393.238C1410.52 389.459 1410.33 385.774 1409.96 382.184C1409.77 378.593 1409.86 375.003 1410.24 371.412H1408.82C1407.12 371.412 1405.33 371.885 1403.44 372.83C1401.55 373.585 1399.66 374.53 1397.77 375.664C1396.07 376.609 1394.37 377.554 1392.66 378.499C1391.15 379.255 1389.83 379.632 1388.7 379.632C1388.13 379.632 1387.56 379.538 1387 379.349C1386.43 379.16 1385.77 379.066 1385.01 379.066C1384.07 379.066 1382.93 379.444 1381.61 380.199C1380.29 380.955 1378.87 381.806 1377.36 382.75C1375.66 383.506 1373.96 384.262 1372.26 385.018C1370.56 385.774 1368.85 386.152 1367.15 386.152C1364.51 386.152 1361.86 385.018 1359.22 382.75C1358.84 381.239 1358.74 379.821 1358.93 378.499C1358.93 377.176 1358.93 375.759 1358.93 374.247C1358.93 372.735 1358.65 371.129 1358.08 369.428C1359.41 366.971 1361.2 365.082 1363.47 363.759C1365.55 362.247 1367.82 360.924 1370.27 359.791C1372.54 358.468 1374.9 357.24 1377.36 356.106C1379.82 354.783 1381.89 353.082 1383.59 351.003H1385.3C1387.94 351.003 1390.3 350.437 1392.38 349.303C1394.65 348.169 1397.2 347.697 1400.03 347.885C1400.98 347.508 1401.64 346.09 1402.02 343.634L1403.15 343.917C1407.31 343.917 1411 342.5 1414.21 339.665C1416.29 327.949 1417.99 316.138 1419.31 304.233C1420.63 292.328 1421.29 280.423 1421.29 268.518C1421.29 267.384 1420.92 266.25 1420.16 265.117C1419.78 263.605 1419.59 262.187 1419.59 260.865V256.613C1419.59 254.534 1419.69 252.361 1419.88 250.093C1420.07 247.826 1420.54 245.558 1421.29 243.29C1423.18 242.157 1425.17 241.59 1427.25 241.59C1429.7 241.59 1432.07 241.968 1434.33 242.724C1436.79 243.29 1439.15 243.763 1441.42 244.141C1443.12 245.842 1444.35 247.731 1445.1 249.81C1446.05 251.889 1446.62 254.062 1446.8 256.329C1446.99 258.408 1446.99 260.581 1446.8 262.849C1446.8 264.928 1446.8 267.006 1446.8 269.085C1446.8 273.242 1447.28 277.305 1448.22 281.273C1449.17 285.242 1449.64 289.116 1449.64 292.895C1449.64 293.84 1449.26 294.596 1448.51 295.163C1447.94 295.541 1447.66 296.769 1447.66 298.848C1447.66 300.926 1447.84 303.1 1448.22 305.367C1448.6 307.635 1448.79 309.902 1448.79 312.17C1448.79 314.816 1448.41 317.556 1447.66 320.39C1446.9 323.225 1446.24 325.965 1445.67 328.611C1457.01 327.666 1468.63 326.248 1480.54 324.359C1492.44 322.469 1503.78 319.445 1514.55 315.288C1514.74 314.91 1514.83 314.343 1514.83 313.587C1514.83 312.454 1514.74 311.32 1514.55 310.186C1514.36 309.052 1514.27 307.824 1514.27 306.501C1514.27 304.233 1515.02 302.438 1516.54 301.115C1515.59 295.824 1514.93 290.533 1514.55 285.242C1514.17 279.951 1513.98 274.66 1513.98 269.368V253.211C1513.98 247.92 1513.89 242.629 1513.7 237.338C1515.21 236.393 1516.82 235.921 1518.52 235.921C1520.6 235.921 1522.49 236.488 1524.19 237.621C1526.08 238.566 1528.25 239.039 1530.71 239.039C1532.41 239.039 1533.83 238.755 1534.96 238.188C1537.04 240.078 1538.46 242.535 1539.21 245.558C1539.97 248.582 1540.63 251.7 1541.2 254.912C1541.76 258.125 1542.33 261.337 1542.9 264.55C1543.65 267.573 1545.07 270.03 1547.15 271.919L1547.43 272.77C1547.43 273.526 1547.05 274.093 1546.3 274.471C1545.54 274.848 1545.16 275.604 1545.16 276.738V277.872C1545.92 280.896 1546.49 284.014 1546.86 287.226C1547.24 290.439 1547.53 293.746 1547.72 297.147C1548.09 300.359 1548.57 303.572 1549.13 306.784C1549.7 309.808 1550.74 312.643 1552.25 315.288C1553.2 315.099 1554.42 315.005 1555.94 315.005C1559.71 315.005 1562.64 316.327 1564.72 318.973C1566.99 321.43 1568.97 323.981 1570.67 326.626Z" fill="url(#paint0_linear_293_33)"/>
</g>
</g>
</g>
<defs>
<filter id="filter0_n_293_33" x="0" y="0" width="1627" height="681" filterUnits="userSpaceOnUse" color-interpolation-filters="sRGB">
<feFlood flood-opacity="0" result="BackgroundImageFix"/>
<feBlend mode="normal" in="SourceGraphic" in2="BackgroundImageFix" result="shape"/>
<feTurbulence type="fractalNoise" baseFrequency="0.55555558204650879 0.55555558204650879" stitchTiles="stitch" numOctaves="3" result="noise" seed="3049" />
<feColorMatrix in="noise" type="luminanceToAlpha" result="alphaNoise" />
<feComponentTransfer in="alphaNoise" result="coloredNoise1">
<feFuncA type="discrete" tableValues="1 1 1 1 1 1 1 1 1 1 1 1 1 1 1 1 1 1 1 1 1 1 1 1 1 1 1 1 1 1 1 1 1 1 1 1 1 1 1 1 1 1 1 1 1 1 1 1 1 1 1 0 0 0 0 0 0 0 0 0 0 0 0 0 0 0 0 0 0 0 0 0 0 0 0 0 0 0 0 0 0 0 0 0 0 0 0 0 0 0 0 0 0 0 0 0 0 0 0 0 "/>
</feComponentTransfer>
<feComposite operator="in" in2="shape" in="coloredNoise1" result="noise1Clipped" />
<feFlood flood-color="rgba(201, 169, 221, 0.2)" result="color1Flood" />
<feComposite operator="in" in2="noise1Clipped" in="color1Flood" result="color1" />
<feMerge result="effect1_noise_293_33">
<feMergeNode in="shape" />
<feMergeNode in="color1" />
</feMerge>
</filter>
<filter id="filter1_d_293_33" x="11.6566" y="133.026" width="1566.12" height="404.615" filterUnits="userSpaceOnUse" color-interpolation-filters="sRGB">
<feFlood flood-opacity="0" result="BackgroundImageFix"/>
<feColorMatrix in="SourceAlpha" type="matrix" values="0 0 0 0 0 0 0 0 0 0 0 0 0 0 0 0 0 0 127 0" result="hardAlpha"/>
<feOffset dy="14"/>
<feGaussianBlur stdDeviation="3.55"/>
<feComposite in2="hardAlpha" operator="out"/>
<feColorMatrix type="matrix" values="0 0 0 0 0 0 0 0 0 0 0 0 0 0 0 0 0 0 0.25 0"/>
<feBlend mode="normal" in2="BackgroundImageFix" result="effect1_dropShadow_293_33"/>
<feBlend mode="normal" in="SourceGraphic" in2="effect1_dropShadow_293_33" result="shape"/>
</filter>
<linearGradient id="paint0_linear_293_33" x1="814" y1="-5" x2="814" y2="687" gradientUnits="userSpaceOnUse">
<stop stop-color="#C9A9DD"/>
<stop offset="1" stop-color="#491077"/>
</linearGradient>
<clipPath id="clip0_293_33">
<rect width="1627" height="681" fill="white"/>
</clipPath>
</defs>
</svg>
