<svg width="1080" height="472" viewBox="0 0 1080 472" fill="none" xmlns="http://www.w3.org/2000/svg">
<g clip-path="url(#clip0_188_14)">
<g id="hero-scene">
<path d="M0 0H1080V57.2465V174.477V472H0V0Z" fill="#08090A"/>
<path d="M1080 57.2466V174.477C1079.65 174.835 1079.21 175.278 1078.7 175.806C1078.09 179.812 1078.33 187.089 1078.36 190.971L1078.42 196.183C1061.13 196.114 1044.35 197.128 1027.14 198.698C1021.49 199.214 1014.14 197.309 1008.37 197.071C997.729 196.632 987.077 196.434 976.451 195.629C962.118 195.005 934.743 187.727 921.976 190.065C918.87 190.661 915.854 191.65 912.996 193.007C902.507 198.018 874.093 215.624 866.531 223.808C860.962 225.289 856.079 227.574 850.579 228.93C845.601 230.156 840.955 231.99 836.103 233.352C834.437 233.818 829.612 233.805 827.724 233.916C827.323 236.785 826.944 242.503 824.686 244.337L823.816 244.649C824.286 243.169 824.687 242.339 824.328 240.831C821.955 239.815 819.186 241.254 816.539 242.151C816.729 239.38 815.869 236.639 814.129 234.472C811.461 231.201 807.031 231.05 803.134 230.632L803.619 229.462L804.5 227.566C805.866 227.097 808.502 227.576 811.888 226.764C809.499 226.74 806.061 227.247 804.669 225.179C801.979 223.984 797.507 224.981 794.311 225.317C792.097 227.288 790.341 228.964 787.804 230.533C785.489 230.616 784.297 230.261 782.604 231.44C781.27 234.822 782.251 234.389 779.504 237.225L777.901 237.829L777.062 238.469C776.577 241.479 775.506 250.073 774.162 252.209L774.199 252.594L769.595 257.155C764.279 255.75 763.309 255.789 762.703 249.932C761.901 253.598 762.513 257.522 762.117 258.742C760.577 259.332 758.932 259.738 757.978 261.024L757.951 261.482C757.83 263.296 756.359 267.032 756.432 267.58C757.376 274.147 758.442 278.817 758.32 285.568L759.665 286.316C757.102 287.362 755.399 287.682 754.465 290.5C751.375 292.22 751.481 298.701 741.936 295.063C736.33 292.926 739.352 284.748 737.137 279.811C736.251 279.43 735.866 279.31 734.933 279.076C733.931 276.43 733.256 267.615 732.892 264.316C729.29 258.082 737.2 241.742 734.178 233.535C732.343 228.548 727.56 232.608 724.201 225.381C725.514 226.036 727.059 227.481 728.156 228.2C730.74 229.889 736.072 229.713 739.051 229.548C744.926 229.224 758.653 227.065 762.66 222.437C762.528 221.99 762.07 220.294 762.328 220.02C765.144 217.015 770.233 213.722 773.081 210.984C774.346 209.68 777.553 203.62 778.945 203.028C785.985 200.039 786.312 200.899 790.182 194.522C791.316 192.655 801.631 190.812 802.601 186.129C803.424 182.169 801.483 184.23 800.761 181.981C803.872 178.884 808.344 177.032 811.313 173.833C815.542 169.056 817.778 164.141 823.078 160.252C826.88 157.411 842.11 154.22 844.467 150.955C850.099 143.163 868.704 124.459 866.341 114.712L866.283 114.494C867.934 110.667 880.991 110.574 884.229 105.8C893.394 100.152 898.857 101.092 908.228 98.5838C922.414 94.7645 937.042 89.0093 951.687 87.3096C971.51 85.4548 989.735 86.5586 1009.2 81.1931C1034.08 74.3377 1056.14 66.9677 1080 57.2466Z" fill="#2F2F2F"/>
<path d="M749.883 232.841C751.518 231.791 755.716 231.027 757.609 231.289L758.025 231.794L757.693 231.897C756.201 232.364 755.948 232.568 754.772 233.582C753.058 237.317 755.273 249.276 753.591 254.438C752.715 257.126 748.924 263.648 749.087 265.27C750.158 266.968 753.844 268.867 755.61 268.109C755.974 267.006 757.836 261.746 757.978 261.024L757.952 261.482C757.83 263.296 756.359 267.032 756.433 267.58C757.377 274.147 758.442 278.817 758.321 285.568L759.666 286.316C757.103 287.362 755.399 287.682 754.466 290.5C751.376 292.22 751.481 298.701 741.936 295.063C736.331 292.926 739.352 284.748 737.137 279.811C736.251 279.43 735.867 279.31 734.933 279.076C733.931 276.43 733.256 267.615 732.892 264.316C732.75 256.813 734.664 250.216 735.102 242.8C735.281 239.737 735.54 236.708 735.824 233.656C737.148 232.731 737.285 233.171 739.447 233.536C743.46 233.488 745.949 233.474 749.883 232.841Z" fill="#686768"/>
<path d="M749.882 232.841C750.462 235.128 749.803 237.021 750.099 238.847C751.306 246.316 747.261 253.495 746.76 260.17C746.165 268.203 749.181 282.933 741.429 288.754L740.538 288.827C740.295 288.206 741.276 281.724 741.382 279.927C741.803 281.113 742.558 283.883 743.349 284.509C747.91 273.714 732.775 260.887 735.37 249.83C735.866 247.71 736.076 245.203 736.751 243.049C737.337 237.457 735.38 238.236 739.446 233.536C743.459 233.487 745.948 233.474 749.882 232.841Z" fill="#8F8F8E"/>
<path d="M806.319 202.519C812.156 204.288 814.002 205.895 816.976 211.485C817.794 213.034 818.59 214.593 819.365 216.162C822.271 217.021 824.496 217.559 827.17 219.033C828.172 220.453 829.759 222.393 830.091 224.017C829.068 225.067 814.524 226.41 811.887 226.764C809.499 226.74 806.06 227.247 804.668 225.179L804.578 224.996C798.314 212.417 770.57 214.851 806.319 202.519Z" fill="#535353"/>
<path d="M772.743 238.472L777.062 238.469C776.577 241.479 775.506 250.073 774.161 252.209L774.198 252.594L769.595 257.155C764.279 255.75 763.309 255.789 762.702 249.932L763.889 245.401C764.98 237.721 767.137 241.267 772.316 239.639L772.743 238.472Z" fill="#515152"/>
<path d="M767.005 242.656C770.439 242.698 772.353 242.451 774.847 244.96C773.956 246.371 773.328 249.317 772.353 251.465C770.011 253.321 767.939 253.109 765.698 251.225C764.59 248.457 766.019 245.455 767.005 242.656Z" fill="#686768"/>
<path d="M776.603 221.662C779.983 220.026 785.958 218.255 788.178 222.307C788.104 227.632 782.003 227.59 778.322 228.905C778.254 230.362 778.222 232.198 778.011 233.608L777.9 237.828L777.062 238.469L772.743 238.472L765.919 238.048C768.693 232.25 774.546 229.415 776.603 221.662Z" fill="#515152"/>
<path d="M778.011 233.608C776.94 235.239 776.962 236.317 775.759 237.546C774.43 236.966 774.894 237.228 773.861 235.85C772.69 230.154 779.625 218.683 786.032 220.539C787.044 221.511 787.034 221.809 787.276 223.213C785.146 227.597 780.052 224.565 778.322 228.905C778.254 230.362 778.222 232.198 778.011 233.608Z" fill="#686768"/>
<path d="M776.604 221.662C778.713 218.053 783.918 215.482 787.941 216.987C789.887 218.502 789.871 219.274 790.22 221.478C791.432 229.107 785.294 227.62 780.833 230.141C780.511 230.32 779.641 236.242 779.504 237.225L777.901 237.829L778.011 233.608C778.222 232.198 778.254 230.363 778.323 228.905C782.004 227.591 788.105 227.632 788.179 222.307C785.959 218.256 779.984 220.027 776.604 221.662Z" fill="#3D3C3A"/>
<path d="M822.984 161.65L824.233 163.379C825.699 163.202 826.744 163.093 828.22 163.054L828.194 163.71C817.974 168.832 829.048 172.63 815.949 176.581C813.491 180.002 812.405 180.52 808.693 182.11C807.211 182.188 806.462 182.124 805.302 181.228C806.768 179.84 808.73 180.728 810.886 179.31C812.69 176.735 810.665 179.033 810.491 175.89C814.863 168.754 823.696 171.388 822.984 161.65Z" fill="#515152"/>
<path d="M884.229 105.8C880.991 110.574 867.934 110.667 866.283 114.494L866.341 114.712C868.704 124.459 850.099 143.163 844.467 150.955C842.11 154.22 826.88 157.411 823.078 160.252C817.778 164.141 815.542 169.056 811.313 173.833C808.344 177.032 803.872 178.884 800.761 181.981C801.483 184.23 803.424 182.169 802.601 186.129C801.631 190.811 791.316 192.655 790.182 194.522C786.312 200.899 785.985 200.039 778.945 203.028C777.552 203.62 774.346 209.68 773.081 210.984C770.233 213.722 765.144 217.015 762.328 220.02C762.07 220.294 762.528 221.99 762.66 222.437C758.652 227.065 744.926 229.224 739.051 229.548C736.072 229.713 730.74 229.889 728.156 228.2C727.059 227.481 725.514 226.036 724.201 225.381L723.895 224.555C721.301 219.785 721.322 212.837 726.685 210.009C730.861 209.927 733.308 209.245 735.66 205.8C739.789 199.474 744.63 203.017 747.262 197.327L748.459 194.131C749.63 189.513 749.503 188.333 754.017 186.176C755.183 186.143 755.362 186.002 756.385 185.415C758.494 182.079 756.469 181.287 756.116 177.003L756.084 176.58L756.464 176.145C756.258 175.402 756.032 174.663 755.789 173.93C759.037 173.876 764.095 173.377 765.756 170.098L764.907 169.292C763.462 172.004 760.577 172.857 757.629 172.488C756.617 171.39 756.279 170.89 755.462 169.668C753.242 164.443 748.939 157.162 749.202 152.43C749.503 153.122 749.846 154.207 750.431 154.556C752.883 153.393 777.69 152.701 774.346 145.918C769.131 145.42 767.417 145.618 763.657 141.565C760.572 138.241 756.448 141.34 752.504 140.947C761.421 137.107 769.906 139.82 778.707 137.329C783.628 135.397 792.656 133.849 797.043 131.29C814.382 121.179 833.752 117.197 853.511 114.684C865.271 113.19 873.297 110.371 884.229 105.8Z" fill="#7D7D7D"/>
<path d="M748.707 225.314C754.112 219.761 757.197 220.541 761.848 215.738C762.934 214.618 764.079 206.922 765.134 206.606C765.925 206.409 769.927 205.569 770.296 205.108C775.317 198.801 779.113 197.518 786.101 194.986C786.043 195.007 790.451 189.818 790.794 189.474L791.232 189.581C796.468 190.839 795.524 187.985 797.375 184.318C797.407 184.246 800.893 179.222 800.771 179.295C801.051 180.381 800.956 180.902 800.761 181.981C801.483 184.23 803.424 182.169 802.601 186.129C801.631 190.812 791.316 192.655 790.182 194.522C786.312 200.899 785.985 200.039 778.945 203.028C777.552 203.62 774.346 209.68 773.081 210.984C770.233 213.722 765.144 217.015 762.328 220.02C762.07 220.294 762.528 221.99 762.66 222.437C758.652 227.065 744.926 229.224 739.051 229.548C736.072 229.713 730.74 229.889 728.156 228.2C727.059 227.481 725.514 226.036 724.201 225.381L723.895 224.555C721.301 219.785 721.322 212.837 726.685 210.01C730.861 209.927 733.308 209.245 735.66 205.801L736.668 206.205C742.674 206.373 744.214 205.321 748.596 208.983L747.262 205.883L747.473 205.435C754.761 212.383 753.78 216.265 747.193 222.877C744.725 223.56 740.211 223.792 738.772 225.63L739.478 225.012L739.932 225.947C743.734 226.049 744.963 225.96 748.707 225.314Z" fill="#686768"/>
<path d="M736.668 206.205C742.674 206.373 744.214 205.321 748.596 208.982C749.962 212.317 751.908 217.482 747.858 220.003C747.061 221.288 746.655 221.641 744.736 221.884C738.434 222.685 730.049 225.265 723.895 224.555C721.301 219.785 721.322 212.837 726.685 210.009C730.861 209.926 733.308 209.245 735.66 205.8L736.668 206.205Z" fill="#979696"/>
<path d="M723.895 224.555C721.301 219.785 721.322 212.837 726.685 210.009C725.92 211.613 725.672 211.947 725.984 213.712C726.485 214.397 727.001 215.207 727.666 215.699C728.91 217.301 730.492 218.058 732.001 219.089C736.219 221.982 742.278 220.723 746.845 219.428C746.845 219.428 747.7 219.913 747.858 220.003C747.061 221.288 746.655 221.641 744.736 221.884C738.434 222.685 730.049 225.265 723.895 224.555Z" fill="#858485"/>
<path d="M735.66 205.8L736.667 206.205C737.311 208.866 738.924 214.498 737.474 216.902C734.447 218.531 730.708 215.946 727.666 215.699C727.001 215.207 726.484 214.397 725.983 213.712C725.672 211.947 725.92 211.613 726.685 210.009C730.861 209.926 733.308 209.245 735.66 205.8Z" fill="#ABA9A9"/>
<path d="M764.907 169.292C760.867 163.414 762.729 165.28 763.504 159.743L764.242 159.406C766.768 161.004 768.63 166.595 770.323 169.025C770.839 169.768 771.878 169.867 773.107 171.141C771.836 172.155 772.121 171.621 771.952 173.1C775.021 177.485 781.265 175.346 781.74 179.212L781.144 180.578C776.25 182.399 774.114 184.499 769.3 186.683C766.505 187.949 762.513 188.828 760.461 190.141C758.763 188.688 758.948 188.338 756.633 188.568C753.432 188.887 750.526 191.88 748.459 194.131C749.63 189.513 749.503 188.333 754.017 186.176C755.183 186.143 755.362 186.002 756.385 185.415C758.494 182.079 756.469 181.287 756.116 177.003L756.084 176.58L756.464 176.145C756.258 175.402 756.032 174.663 755.789 173.93C759.037 173.876 764.095 173.377 765.756 170.098L764.907 169.292Z" fill="#464546"/>
<path d="M780.199 168.772L780.321 168.325C782.314 160.791 771.678 157.222 786.401 155.404C794.527 154.402 802.807 147.844 805.201 140.182C805.464 139.467 807.416 139.542 808.106 139.565L809.156 140.264L808.95 140.958C808.138 141.122 806.076 141.493 805.396 141.81C803.856 142.534 803.666 146.565 804.104 147.986L805.011 148.205C805.733 147.658 806.451 147.107 807.162 146.551L806.925 146.93C805.517 149.216 804.779 152.212 803.988 154.816C796.726 158.904 797.702 160.23 792.956 166.46C789.686 170.75 787.661 168.936 785.051 175.645C784.439 175.678 784.017 175.396 783.453 175.132C782.298 172.769 783.801 171.199 783.121 168.384L782.087 167.965L780.199 168.772Z" fill="#565455"/>
<path d="M780.2 168.771L782.088 167.965L783.121 168.384C783.802 171.198 782.299 172.768 783.454 175.131C784.018 175.396 784.44 175.677 785.051 175.645C784.123 177.532 783.306 179.967 781.144 180.578L781.74 179.212C781.265 175.345 775.021 177.485 771.952 173.1C772.121 171.621 771.836 172.155 773.107 171.141C774.478 172.498 775.211 172.673 777.03 173.361C778.486 173.163 777.927 173.401 779.166 171.965C779.172 170.466 779.193 170.011 780.2 168.771Z" fill="#515152"/>
<path d="M748.459 194.131C750.526 191.88 753.432 188.887 756.633 188.568C758.948 188.338 758.763 188.688 760.461 190.141C757.603 193.801 751.897 193.949 747.262 197.327L748.459 194.131Z" fill="#686768"/>
<path d="M752.504 140.947C756.448 141.34 760.572 138.241 763.657 141.565C767.417 145.618 769.131 145.421 774.346 145.918C777.69 152.701 752.883 153.393 750.431 154.556C749.846 154.208 749.503 153.122 749.203 152.43C748.939 157.162 753.242 164.443 755.462 169.668C756.279 170.891 756.617 171.39 757.629 172.489C760.577 172.857 763.462 172.004 764.907 169.292L765.756 170.098C764.095 173.377 759.037 173.876 755.789 173.93C756.032 174.663 756.258 175.402 756.464 176.145L756.084 176.58C754.74 174.625 754.502 174.259 752.393 173.244C750.458 173.706 749.624 174.027 747.705 173.6C746.249 172.519 744.145 170.189 742.896 170.556C739.294 171.616 734.89 172.901 731.521 174.382C727.328 173.087 723.437 173.068 719.102 173.183C717.926 172.324 716.043 171.278 714.741 170.504C706.989 169.915 699.537 172.033 691.97 173.857C691.411 173.406 689.94 172.556 689.259 172.135C687.045 170.583 680.136 171.971 678.27 170.673L679.282 169.195C675.369 170.165 675.591 169.558 672.801 170.026C669.458 170.586 664.648 171.838 661.236 172.643L659.312 170.883C657.83 172.144 659.101 172.288 657.84 173.63C652.751 171.908 648.622 173.081 642.906 171.656L641.329 169.539C641.092 168.684 639.721 166.111 639.246 165.167C644.53 168.059 657.603 161.138 664.079 159.979C669.943 157.87 684.144 157.522 689.175 155.069C700.123 149.73 700.85 146.992 714.435 149.062C722.382 150.272 730.16 153.322 734.78 144.449L737.459 143.928C741.435 141.928 747.557 141.899 752.504 140.947Z" fill="#686768"/>
<path d="M752.504 140.947C756.448 141.34 760.572 138.241 763.657 141.565C767.417 145.618 769.131 145.421 774.346 145.918C777.69 152.701 752.883 153.393 750.431 154.556C749.846 154.208 749.503 153.122 749.203 152.43C744.383 153.359 734.131 166.753 726.11 160.711C727.228 160.719 728.926 160.927 729.754 160.468C726.696 158.957 722.624 157.019 719.397 155.737C718.754 155.482 714.72 157.317 713.581 156.68C708.961 154.105 709.051 152.016 703.55 151.951C700.908 153.188 699.242 153.972 696.932 155.779C695.893 156.592 691.801 160.764 691.142 160.922C689.233 161.379 685.136 161.919 683.01 162.252C678.792 162.913 674.873 163.841 670.613 164.172C670.792 164.159 667.575 165.078 666.926 165.222C664.464 165.771 659.348 165.778 657.281 166.405C653.474 167.561 647.125 171.674 642.848 170.146C642.336 169.961 641.83 169.758 641.329 169.539C641.092 168.684 639.721 166.111 639.246 165.167C644.53 168.059 657.603 161.138 664.079 159.979C669.943 157.87 684.144 157.522 689.175 155.069C700.123 149.73 700.85 146.992 714.435 149.062C722.382 150.272 730.16 153.322 734.78 144.449L737.459 143.928C741.435 141.928 747.557 141.899 752.504 140.947Z" fill="#9E9D9D"/>
<path d="M679.567 169.07C681.935 165.635 690.931 168.274 694.939 166.758C698.103 165.559 705.016 158.145 706.989 158.306C709.193 160.959 707.648 161.172 709.683 164.136L709.921 164.477C711.851 169.759 711.329 167.238 714.741 170.504C706.989 169.915 699.537 172.033 691.97 173.856C691.411 173.406 689.94 172.555 689.259 172.135C687.045 170.583 680.136 171.971 678.27 170.673L679.282 169.194L679.567 169.07Z" fill="#434243"/>
<path d="M679.567 169.07C683.828 168.586 684.571 169.676 688.405 169.853C690.177 169.935 696.837 168.116 698.609 168.536C697.423 169.071 690.372 171.929 689.259 172.135C687.045 170.583 680.136 171.971 678.27 170.673L679.282 169.194L679.567 169.07Z" fill="#515152"/>
<path d="M709.921 164.477L710.264 164.655C711.645 165.398 714.941 168.369 715.574 168.499C720.716 169.558 724.945 167.328 730.377 169.569C732.75 170.549 741.519 164.702 744.662 167.253C746.012 172.003 747.315 172.389 752.393 173.244C750.458 173.706 749.625 174.027 747.705 173.6C746.25 172.519 744.146 170.189 742.896 170.556C739.294 171.616 734.891 172.901 731.521 174.382C727.329 173.086 723.437 173.067 719.102 173.182C717.926 172.324 716.043 171.278 714.741 170.504C711.329 167.238 711.851 169.759 709.921 164.477Z" fill="#3D3C3A"/>
<path d="M726.11 160.711C734.131 166.753 744.382 153.358 749.202 152.43C748.939 157.162 753.242 164.443 755.462 169.668C756.358 169.869 748.49 163.665 748.548 163.724C742.943 158.252 737.564 163.835 732.027 163.666C726.6 163.501 719.845 161.209 714.065 161.493C713.522 161.526 710.748 158.626 710.11 157.961L710.828 157.586C713.549 157.926 715.263 159.96 716.359 160.025C719.93 160.234 721.939 159.147 725.688 160.55L726.11 160.711Z" fill="#8F8F8E"/>
<path d="M803.134 230.632C807.031 231.049 811.461 231.201 814.129 234.472C815.869 236.639 816.729 239.38 816.539 242.151C815.595 244.91 814.535 254.944 813.718 258.557C812.415 264.322 815.864 271.721 813.697 277.979C813.016 279.917 811.851 282.965 811.44 284.881C808.275 287.313 804.948 286.915 801.51 284.702C799.653 283.51 799.738 282.202 799.406 280.151C799.432 277.647 798.23 274.738 798.404 270.895C797.56 254.212 799.717 254.609 802.295 239.828C801.678 237.377 802.665 233.298 803.134 230.632Z" fill="#515152"/>
<path d="M803.134 230.632C807.031 231.049 811.461 231.201 814.129 234.472C815.87 236.639 816.729 239.38 816.539 242.151C815.595 244.91 814.535 254.944 813.718 258.557C812.416 264.322 815.864 271.721 813.697 277.979L813.66 270.058L811.266 266.202C809.241 265.686 806.267 265.032 804.279 264.447C803.614 264.252 802.907 262.859 802.871 262.052C802.813 259.549 802.37 254.569 803.683 252.443C805.481 249.523 810.538 252.596 812.421 249.488C813.581 247.568 815.68 239.339 812.721 238.266C810.512 237.463 806.056 235.062 803.989 235.561C802.602 237.204 803.076 237.982 802.296 239.828C801.679 237.377 802.665 233.298 803.134 230.632Z" fill="#3D3C3A"/>
<path d="M798.404 270.895C799.068 268.521 798.694 268.123 800.856 266.837C808.112 262.523 815.052 269.521 812.663 277.091C811.508 280.737 807.221 284.331 803.393 284.375C801.009 283.343 800.83 282.516 799.406 280.151C799.432 277.647 798.23 274.738 798.404 270.895Z" fill="#686768"/>
<path d="M708.581 143.945C709.467 143.54 712.241 142.332 713.137 142.405C721.67 143.101 729.258 141.207 737.459 143.928L734.78 144.449C730.16 153.322 722.382 150.272 714.435 149.061C700.85 146.992 700.123 149.73 689.175 155.068C684.144 157.522 669.943 157.87 664.079 159.979C657.603 161.138 644.53 168.058 639.246 165.167C639.41 162.724 640.475 161.953 642.563 160.898C654.729 154.747 668.704 152.626 681.713 148.905C688.199 147.051 694.538 142.767 701.562 142.174C703.445 142.013 706.794 143.339 708.581 143.945Z" fill="#C1C0C0"/>
<path d="M757.978 261.024C758.932 259.738 760.578 259.332 762.118 258.742C762.513 257.522 761.901 253.597 762.703 249.932C763.309 255.789 764.28 255.75 769.595 257.155L774.199 252.594C771.42 262.101 772.564 262.408 773.144 271.839C772.448 279.674 771.568 286.934 765.213 292.328L758.563 291.219L754.466 290.5C755.399 287.682 757.103 287.362 759.665 286.316L758.321 285.568C758.442 278.817 757.377 274.147 756.433 267.58C756.359 267.032 757.83 263.296 757.952 261.482L757.978 261.024Z" fill="#3D3C3A"/>
<path d="M757.725 265.116C762.603 269.745 774.426 274.247 768.013 282.843C766.837 284.423 764.327 283.06 763.125 284.437C765.603 285.258 764.686 283.618 766.822 284.732C768.156 289.404 761.833 290.844 758.563 291.219L754.466 290.5C755.399 287.682 757.103 287.362 759.665 286.316L758.321 285.568C760.346 280.605 757.783 271.261 757.725 265.116Z" fill="#515152"/>
<path d="M794.311 225.317C797.507 224.981 801.979 223.984 804.668 225.179C806.061 227.247 809.499 226.74 811.888 226.764C808.502 227.576 805.865 227.097 804.5 227.566L803.619 229.462L803.635 227.465L802.844 226.772C799.775 227.282 797.612 229.406 792.74 230.356C791.411 234.487 790.525 236.66 788.242 240.396C786.375 241.741 784.872 242.849 783.1 244.341C780.948 244.285 781.613 243.986 780.178 245.246C779.018 248.219 779.351 251.662 777.995 253.052C777.378 256.527 775.459 261.219 775.411 263.833C774.003 267.226 773.75 268.206 773.144 271.839C772.564 262.408 771.419 262.101 774.198 252.594L774.162 252.209C775.506 250.073 776.577 241.479 777.062 238.469L777.9 237.828L779.504 237.225C782.251 234.389 781.27 234.822 782.604 231.44C784.297 230.261 785.489 230.616 787.804 230.533C790.34 228.964 792.096 227.288 794.311 225.317Z" fill="#272626"/>
<path d="M777.9 237.829C777.663 239.776 777.067 243.927 777.046 245.695L779.625 243.284L780.11 243.445C779.293 245.861 776.687 250.435 777.995 253.052C777.378 256.527 775.459 261.22 775.411 263.833C774.003 267.227 773.75 268.206 773.144 271.839C772.564 262.408 771.419 262.102 774.198 252.594L774.162 252.209C775.506 250.073 776.577 241.479 777.062 238.469L777.9 237.829Z" fill="#29292B"/>
<path d="M642.906 171.656C648.623 173.081 652.752 171.908 657.841 173.63C659.101 172.288 657.83 172.144 659.312 170.883L661.237 172.642C664.649 171.838 669.458 170.586 672.801 170.025C675.591 169.558 675.37 170.165 679.282 169.194L678.27 170.673C680.137 171.971 687.045 170.583 689.26 172.135C689.94 172.555 691.411 173.406 691.97 173.856C690.114 174.179 685.589 173.331 682.784 173.492C672.427 174.089 662.428 177.886 652.182 178.164C648.786 178.257 644.905 174.07 642.906 171.656Z" fill="#555454"/>
<path d="M816.539 242.151C819.186 241.254 821.955 239.815 824.328 240.831C824.686 242.339 824.286 243.169 823.816 244.649C820.631 247.518 818.617 249.733 815.969 253.141C815.7 256.233 815.337 259.437 815.326 262.537C815.3 268.838 818.295 280.952 811.439 284.881C811.851 282.965 813.016 279.917 813.696 277.98C815.864 271.721 812.415 264.322 813.718 258.557C814.535 254.944 815.595 244.91 816.539 242.151Z" fill="#272626"/>
<path d="M731.521 174.381C734.89 172.901 739.294 171.615 742.895 170.556C744.145 170.189 746.249 172.519 747.705 173.6C749.624 174.027 750.457 173.705 752.393 173.244C754.502 174.259 754.739 174.625 756.084 176.58L756.116 177.003C756.469 181.287 758.494 182.079 756.385 185.415C755.362 186.002 755.182 186.142 754.017 186.176C754.971 184.701 756 183.531 755.805 181.827C754.233 180.085 752.625 180.831 750.326 179.675C747.488 178.248 745.3 176.367 742.473 174.644C738.898 174.433 735.286 174.628 731.521 174.381Z" fill="#29292B"/>
<path d="M777.995 253.052C779.35 251.662 779.018 248.219 780.178 245.246C781.613 243.987 780.948 244.286 783.1 244.341C782.409 247.945 781.955 252.691 780.764 255.909C778.428 258.567 777.679 261.793 775.411 263.833C775.459 261.22 777.378 256.527 777.995 253.052Z" fill="#3D3C3A"/>
<path d="M783.1 244.341C784.872 242.849 786.375 241.741 788.241 240.396C787.44 241.821 786.665 243.235 786.158 244.647C785.294 247.059 785.246 255.234 782.119 255.613C781.85 255.646 781.064 255.852 780.764 255.909C781.955 252.691 782.409 247.945 783.1 244.341Z" fill="#29292B"/>
</g>
<g id="hero-cursors">
<path d="M567.78 145.627L568.192 146.142L567.87 147.379C569.436 149.572 572.574 148.432 575.69 150.759C574.388 151.058 573.476 150.816 572.157 150.618C570.923 153.345 569.462 156.047 568.318 158.684C564.105 159.861 561.326 157.89 557.682 155.871C558.726 144.515 559.78 148.774 567.78 145.627Z" fill="#FAF8F8"/>
<path d="M556.706 128.451L557.713 128.35L557.328 129.383C558.583 132.281 561.463 130.651 563.192 132.563C562.217 133.732 561.832 133.583 560.202 134.207C557.85 138.176 559.622 137.771 555.578 141.33C551.47 140.244 549.972 139.634 546.106 137.829L548.1 128.924L556.706 128.451Z" fill="#FAF8F8"/>
<path d="M587.825 145.766L589.914 145.602C591.026 146.468 590.594 146.599 590.995 147.221C592.118 148.95 595.83 149.91 597.934 151.076L597.671 151.671C596.985 151.493 596.205 151.288 595.319 151.057C593.768 153.007 592.888 155.86 590.441 156.685C590.156 158.174 589.671 158.291 588.495 158.85C578.481 157.855 576.377 146.848 587.825 145.766Z" fill="#FAF8F8"/>
<path d="M485.659 134.653L485.551 135.292C484.601 135.724 484.407 135.749 483.716 136.498C485.932 137.526 487.033 136.762 488.177 138.931C488.85 140.209 490.359 140.825 491.255 142.215C486.379 143.202 489.045 143.423 485.292 146.916C484.415 147.733 484.449 147.643 483.587 148.648C478.371 148.298 478.144 146.065 473.481 142.204C476.654 136.067 478.968 136.876 485.659 134.653Z" fill="#FAF8F8"/>
<path d="M221.053 62.1172C221.877 62.2258 222.193 62.5206 222.881 62.9726C222.364 64.3664 222.726 63.9124 221.555 64.7309C220.293 64.0458 220.079 63.8818 218.661 63.9414C219.54 65.764 226.539 66.8483 227.271 69.1392C225.994 69.9977 225.769 69.0559 223.462 68.8328C223.143 71.0161 222.832 70.8589 221.763 72.7095L220.439 73.2216C220.258 73.9066 220.282 74.1376 220.475 74.8174C217.33 76.2318 211.503 71.8014 209.858 69.0537C210.684 67.2538 211.615 65.4017 212.48 63.6107C216.048 62.0687 217.245 62.1715 221.053 62.1172Z" fill="#FAF8F8"/>
<path d="M604.932 158.65C605.507 158.852 605.528 159.012 605.966 159.51L605.032 161.175C606.725 161.506 610.859 162.056 611.94 163.041L611.397 163.487L608.687 163.22C609.667 166.083 610.548 168.83 607.832 170.802C604.157 172.564 599.927 173.415 596.848 170.007C594.29 164.429 601.161 160.984 604.932 158.65Z" fill="#FAF8F8"/>
<path d="M503.489 101.354C512.297 100.925 511.395 101.631 513.951 108.609C514.299 109.559 517.561 109.333 518.692 110.593C517.323 110.998 516.487 110.382 514.878 109.843L513.808 110.42C512.416 110.825 510.616 113.02 508.552 113.445C506.475 113.872 504.296 112.551 502.56 111.769C500.324 107.47 499.443 104.983 503.489 101.354Z" fill="#FAF8F8"/>
<path d="M248.514 198.88C249.8 198.916 250.618 198.778 251.615 199.535C250.572 200.504 248.132 200.981 246.652 201.377C250.789 201.526 255.422 201.133 259.593 200.876C257.379 201.972 255.029 202.028 253.52 203.557C253.452 205.466 252.913 205.397 253.247 207.437L252.359 208.589L253.038 209.893L252.516 210.78C249.749 211.98 244.453 210.909 241.411 210.46C241.144 208.443 241.126 205.333 241.05 203.22C243.701 200.664 245.155 200.257 248.514 198.88Z" fill="#FAF8F8"/>
<path d="M63.6283 124.529C63.7659 124.786 63.6283 125.137 63.5671 125.548L61.9213 126.252C62.0231 126.384 68.2943 130.305 69.253 130.996C67.8312 130.991 65.3163 130.109 63.9458 129.633L63.5181 129.968C63.3493 132.705 63.4696 133.856 61.0396 135.102L61.2389 135.959L60.7063 136.414C51.7246 133.926 49.44 133.78 52.6377 124.48C56.6853 124.682 59.61 124.853 63.6283 124.529Z" fill="#FAF8F8"/>
<path d="M287.85 217.106L290.91 216.904C289.951 217.495 288.986 218.076 288.015 218.648C291.477 219.528 294.305 218.172 296.434 219.174C295.648 220.693 294.267 219.683 292.395 221.168L293.434 221.64L293.656 222.535C292.975 222.971 292.943 222.954 292.408 223.614L293.168 225.088L292.429 226.383C292.174 226.718 292.336 227.073 292.397 227.64C289.911 230.429 283.692 228.411 280.611 227.746C280.239 220.11 280.198 219.04 287.85 217.106Z" fill="#FAF8F8"/>
<path d="M464.414 115.151C472.006 114.077 469.86 116.994 475.832 120.889C476.94 121.612 478.462 121.891 479.147 122.99C478.134 123.626 476.913 123.021 475.391 122.696C474.279 123.755 473.993 123.905 472.694 124.621L472.282 124.528L472.365 125.011C470.591 126.152 470.064 127.375 467.903 127.466C464.398 126.511 462.221 122.753 460.087 119.833C461.573 117.914 462.444 116.629 464.414 115.151Z" fill="#FAF8F8"/>
<path d="M536.889 179.639C537.132 179.874 537.559 181.382 537.691 181.797C539.141 183.153 541.002 182.967 543.106 183.149C543.117 184.34 541.577 185.076 541.482 185.507C540.95 187.854 541.308 190.362 539.752 192.34C537.865 193.402 538.133 193.045 535.655 192.974C532.623 192.62 530.603 192.743 528.567 190.417C527.044 185.086 533.287 182.175 536.573 179.863L536.889 179.639Z" fill="#FAF8F8"/>
<path d="M444.471 129.782L444.825 130.233L442.758 131.415C444.885 132.057 451.004 134.747 452.794 136.009L452.424 136.491C451.037 136.544 449.692 136.574 448.311 136.727L448.94 138.369C447.008 140.46 447.766 140.878 445.984 142.15L445.681 142.254C445.408 142.952 445.393 142.899 444.797 143.372C441.442 143.565 437.882 140.269 434.428 138.24L436.852 133.372C438.566 132.374 442.513 130.683 444.471 129.782Z" fill="#FAF8F8"/>
<path d="M26.2652 260.227L26.0956 261.211L24.2054 262.415C25.5792 263.212 32.3054 262.503 34.3733 262.39C33.1349 262.982 30.716 263.619 29.7173 264.144C27.3613 265.385 30.0147 267.656 27.759 270.533L28.1511 272.351C23.1805 273.274 21.4396 272.991 16.59 272.262C16.3149 270.139 16.2577 266.962 16.1494 264.747C19.23 262.539 22.6474 261.888 26.2652 260.227Z" fill="#FAF8F8"/>
<path d="M461.391 167.098C461.55 168.133 460.882 168.161 461.108 169.644C464.855 169.345 469.539 167.955 470.747 172.193L470.064 172.731C468.534 172.397 467.251 172.089 465.746 171.658L465.186 172.15L465.9 174.599C465.579 175.567 465.485 176.038 465.61 177.054L464.777 177.531L464.865 179.949L463.994 180.771C460.949 181.315 456.39 179.603 453.2 178.729L454.02 173.624C456.608 171.638 459 169.323 461.391 167.098Z" fill="#FAF8F8"/>
<path d="M317.004 136.91L317.567 137.057L317.7 137.707C315.116 138.947 315.848 137.763 312.917 138.368C313.784 139.616 321.202 140.337 324.035 142.036C323.555 142.086 323.033 142.151 322.574 142.21C322.392 142.233 320.88 142.579 320.881 142.614C320.884 142.693 320.962 143.983 320.969 144.13L319.663 145.679C319.831 147.324 319.926 146.726 318.84 148.221L318.437 148.425L318.375 149.606L317.226 150.064C313.623 149.745 309.966 148.084 306.778 146.442C308.799 138.73 309.44 138.492 317.004 136.91Z" fill="#FAF8F8"/>
<path d="M279.175 114.954C280.841 114.87 281.587 114.737 283.144 115.355L283.119 115.659C281.508 116.663 279.448 116.311 277.512 116.201C280.195 117.273 287.629 119.68 289.517 121.373C287.899 122.374 287.671 121.061 285.012 121.465C285.827 122.577 286.01 122.415 285.947 123.464L284.424 124.081L284.038 124.236C284.696 125.222 284.652 124.837 284.519 125.807C283.485 125.778 283.286 125.713 282.343 126.078C282.766 126.644 283.001 127.026 283.357 127.619C280.431 128.953 274.461 125.887 272.618 123.383C272.212 121.94 273.64 118.753 274.212 117.166L279.175 114.954Z" fill="#FAF8F8"/>
<path d="M432.224 88.697C432.781 88.6859 432.613 88.7091 433.175 88.9844L430.483 90.3376C434.075 91.6376 437.136 94.1969 440.104 96.5664L439.869 97.0669C437.381 97.5679 433.593 94.2344 431.639 92.7836C432.878 94.5371 434.419 95.3809 435.281 97.309L434.707 97.8917C433.792 98.6591 434.096 99.063 433.675 99.5725C429.621 104.489 425.116 98.889 421.28 95.6393C422.43 94.025 423.596 92.4229 424.779 90.8323C427.254 90.0982 429.736 89.3862 432.224 88.697Z" fill="#FAF8F8"/>
<path d="M317.626 74.71C323.253 75.3191 322.027 77.5451 328.7 76.6259L328.887 77.1675L328.171 77.8373L325.708 77.5836C325.556 77.2324 335.263 84.5123 336.963 86.3433C334.548 85.2981 332.086 83.746 329.804 82.4007L327.9 81.5816C326.532 83.3536 325.621 85.895 323.345 86.6355C319.54 86.5495 316.952 83.1859 314.101 80.4467C315.013 78.6421 316.509 76.4508 317.626 74.71Z" fill="#FAF8F8"/>
<path d="M344.927 163.456L345.225 163.775L344.898 164.783C346.093 166.913 354.204 165.884 355.866 167.179C354.173 169.856 349.538 167.316 348.018 168.498C349.998 168.967 350.671 169.069 352.4 170.099L350.95 171.502L351.218 173.123C350.286 173.809 349.083 173.63 347.846 173.633C348.273 174.279 349.595 174.598 350.475 174.943L350.595 175.658C348.035 176.574 341.803 175.506 339.41 174.254C338.65 172.976 339.267 169.804 339.448 168.159L344.927 163.456Z" fill="#FAF8F8"/>
<path d="M382.199 145.073C382.127 146.532 381.471 145.894 380.858 147.563C382.482 147.848 390.849 149.573 391.653 150.383C389.796 152.776 386.694 149.94 383.562 150.576C385.472 152 386.149 151.277 387.905 153.267C386.577 153.813 384.776 153.301 383.176 153.085L383.632 153.589C384.748 154.147 386.426 154.926 386.793 156.078L384.542 156.656C384.71 157.708 384.722 157.651 384.268 158.611C382.305 159.252 376.338 157.12 374.026 156.462L374.961 150.502C377.096 148.736 379.929 146.751 382.199 145.073Z" fill="#FAF8F8"/>
<path d="M444.957 224.725L446.04 225.327C445.472 226.528 442.109 226.541 441.456 227.839C439.421 231.888 443.619 233.526 440.235 237.636C438.556 238.605 436.934 238.456 435 238.479C430.602 239.305 429.819 236.14 428.548 232.78C430.699 231.123 442.675 225.109 444.957 224.725Z" fill="#FAF8F8"/>
<path d="M488.796 199.356L489.12 199.63C488.461 201.089 488.222 200.849 486.543 201.835C484.445 206.065 486.772 214.36 477.189 211.053C475.063 208.453 473.632 208.51 473.327 204.734C475.455 199.176 481.434 203.54 488.796 199.356Z" fill="#FAF8F8"/>
<path d="M379.624 104.643C384.395 106.321 396.666 107.61 398.457 112.107C397.253 112.152 392.9 110 391.064 109.33L390.497 109.539L390.869 110.666C386.13 118.072 383.842 118.433 378.92 110.828C378.466 108.812 379.156 106.686 379.624 104.643Z" fill="#FAF8F8"/>
<path d="M376.005 187.602C378.819 189.179 385.27 185.635 387.443 189.036C385.629 190.348 383.496 188.499 379.493 189.797C378.904 191.014 378.989 190.454 379.469 192.083C379.249 192.744 379.144 193.341 379.005 194.019L379.397 193.06L379.09 193.922L379.761 193.791L379.563 194.057L378.124 195.256L378.244 197.28C375.394 199.345 366.132 196.292 367.487 190.747C368.954 189.276 373.482 188.415 376.005 187.602Z" fill="#FAF8F8"/>
<path d="M178.068 119.148L178.52 119.914C177.822 120.459 177.488 120.627 177.099 121.436C179.892 123.033 184.915 122.766 187.964 124.43L187.914 125.097C185.816 125.788 180.002 124.315 177.6 123.823C179.926 124.745 181.494 125.38 183.734 126.586L183.606 127.192C181.982 127.547 181.075 127.406 179.429 127.283C181.035 127.861 181.725 128.019 182.982 129.189C181.952 129.865 179.983 129.573 178.54 129.549L180.406 131.311L179.74 131.87C175.737 132.505 170.234 130.466 171.486 125.345C171.703 124.459 171.9 123.441 172.123 122.533C174.112 121.486 176.118 120.28 178.068 119.148Z" fill="#FAF8F8"/>
<path d="M87.8248 22.1279C93.3704 23.6342 93.932 24.6325 99.3705 23.3158L99.4464 23.8701C98.6681 24.5126 98.0695 24.8864 97.1266 25.2491L98.0827 26.3365L97.6181 28.2746C98.3321 29.3187 98.7076 29.4745 98.6865 30.5652L96.9579 30.7034C96.3504 32.452 96.285 32.8448 94.8986 34.0537C91.4245 34.4775 87.858 30.8538 84.8174 28.5271L87.8248 22.1279Z" fill="#FAF8F8"/>
<path d="M555.736 161.71L556.279 162.241C556.506 165.08 555.183 164.289 555.019 166.865C559.106 169.115 560.551 164.712 564.385 165.343C563.952 168.614 560.472 168.994 558.621 171.319L558.985 172.641C556.29 175.337 550.389 175.914 547.916 172.445C547.578 171.978 547.272 168.651 547.193 167.862C552.788 166.108 552.862 166.543 555.736 161.71Z" fill="#FAF8F8"/>
<path d="M578.961 163.558C579.53 164.917 578.75 164.711 577.922 166.801C580.812 168.83 584.788 162.867 588.811 164.167C588.933 165.703 583.696 166.686 582.03 171.253L582.789 172.166C582.072 172.764 582.125 172.78 581.871 173.637L583.069 174.255L582.995 174.883C581.434 175.762 578.855 174.732 576.888 174.987C574.642 175.28 574.325 176.368 572.063 176.035C571.314 174.843 572.986 172.054 572.416 168.072L572.379 167.84C575.253 166.326 576.366 165.532 578.961 163.558Z" fill="#FAF8F8"/>
<path d="M272.705 35.8984C274.698 36.4461 277.342 36.6049 279.437 36.7711L278.183 37.6028C276.925 40.647 284.881 42.4522 285.608 46.1591C283.89 46.492 280.78 43.4028 278.305 41.928C278.406 42.8857 279.675 43.6164 280.621 44.4315C281.474 45.3619 281.242 44.9087 281.485 46.1617C278.843 45.876 279.003 44.8812 276.157 43.5041L276.015 43.9928L277.717 46.0449L277.625 46.7741C276.215 46.453 275.215 45.7958 273.96 45.0873C274.06 45.6211 274.14 46.0848 274.316 46.6021L274.428 46.9206C270.998 47.579 269.725 43.6675 268.347 41.129C269.805 39.2481 271.146 37.6797 272.705 35.8984Z" fill="#FAF8F8"/>
<path d="M449.188 76.7656H449.248L449.228 77.1174C448.089 77.3468 447.831 77.4201 446.778 77.9095C447.682 78.7238 451.38 79.3287 452.865 79.6736C455.453 82.0905 456.193 83.2935 458.16 86.2357C455.705 84.8229 451.458 81.079 448.981 80.9229C449.61 82.1559 449.58 81.6829 449.437 82.9238L447.565 83.13L447.517 83.7481L447.527 83.1648C447.776 84.2886 448.85 85.5222 449.525 86.5838C447.204 86.2578 447.826 85.3249 445.873 85.9029C445.714 85.6925 445.556 85.4821 445.397 85.2722C446.198 86.3902 446.428 86.7689 447.004 88.0172L446.612 88.5429C445.421 88.4011 438.948 84.0175 437.502 83.1099C439.006 81.0068 439.37 80.0148 440.349 77.6732C443.3 77.4143 446.246 77.1121 449.188 76.7656Z" fill="#FAF8F8"/>
<path d="M498.065 170.236C500.895 170.372 502.605 170.45 505.356 171.169C501.206 176.278 506.549 174.753 502.799 182.051C495.667 179.45 486.507 175.596 498.065 170.236Z" fill="#FAF8F8"/>
<path d="M183.838 241.884C184.875 240.737 185.923 239.6 186.979 238.472C186.96 239.455 186.917 239.979 187.092 240.943L189.448 240.863L188.203 242.943L191.148 243.889C191.422 245.303 189.779 244.227 189.021 245.838C190.048 246.41 189.929 246.16 190.488 247.043C189.838 247.554 189.19 248.068 188.546 248.587C188.978 249.135 189.301 249.483 189.773 249.979C187.556 251.416 181.818 250.137 178.865 249.733C178.635 247.74 178.148 245.527 177.76 243.539L183.838 241.884Z" fill="#FAF8F8"/>
<path d="M390.61 232.929C387.466 224.057 391.934 224.999 399.55 223.457L400.163 225.019C401.002 225.403 400.67 225.122 401.185 225.896L401.87 225.743L402.066 225.975C401.656 226.383 401.268 226.585 400.78 226.885L400.656 227.894C401.567 228.335 401.621 228.341 402.243 229.115C401.312 229.75 401.12 229.818 400.475 230.717L401.507 231.603L401.396 232.451C399.114 234.083 393.594 233.169 390.61 232.929Z" fill="#FAF8F8"/>
<path d="M114.671 327.759C116.549 325.866 117.804 323.839 120.023 322.206C120.255 323.411 119.797 323.949 119.212 325.064C121.343 324.711 129.126 322.926 130.534 323.434L130.738 324.225C128.582 326.132 124.674 325.608 123.674 326.824L124.012 326.963C125.267 326.856 126.034 326.669 127.151 327.29C126.509 328.158 124.16 328.875 122.96 329.362L124.548 330.005C124.348 330.702 123.487 334.066 123.191 334.244C121.504 335.262 117.506 333.818 115.594 333.241L114.671 327.759Z" fill="#FAF8F8"/>
<path d="M119.212 325.064C121.343 324.711 129.126 322.927 130.535 323.435L130.738 324.225C128.582 326.133 124.674 325.608 123.674 326.824L124.012 326.963C123.091 327.584 122.97 327.639 121.862 327.631C121.008 326.17 120.778 325.774 119.212 325.064Z" fill="#EEDCD6"/>
<path d="M137.588 156.774C138.625 155.567 138.811 155.307 140.209 154.479C140.466 155.681 139.995 155.904 139.235 157.252L139.2 157.848L140.445 158.209L140.777 158.881C141.15 159.337 142.118 160.208 142.587 160.658C142.214 161.34 141.77 161.441 141.049 161.793L140.747 161.938C140.804 163.605 140.488 165.432 139.163 166.541C136.762 167.284 132.434 165.469 129.833 164.646C129.645 162.795 129.585 160.298 129.479 158.386C132.746 158.054 134.415 157.608 137.588 156.774Z" fill="#FAF8F8"/>
<path d="M435.978 155.135L435.524 156.708C436.624 157.293 441.348 157.017 443.283 157.191C444.553 158.192 444.242 157.641 444.441 159.25L443.967 159.675C441.42 158.497 440.479 157.834 437.981 159.426C436.995 160.696 435.817 163.438 435.765 164.865C435.907 165.696 435.898 165.266 435.541 166.202C429.882 167.777 426.361 164.431 425.881 158.884C426.074 158.658 426.267 158.432 426.46 158.207C430.838 158.393 432.373 158.013 435.978 155.135Z" fill="#FAF8F8"/>
<path d="M530.914 122.058C530.945 122.059 540.169 124.9 540.728 125.093L540.849 125.66C536.409 127.901 534.805 122.264 532.258 131.74L532.316 132.389L531.61 132.807C529.115 132.281 524.109 128.006 522.995 125.665C523.044 121.761 527.897 122.095 530.914 122.058Z" fill="#FAF8F8"/>
<path d="M533.244 148.422C534.231 148.524 535.164 148.931 536.103 149.272L536.962 151.117C539.082 151.627 538.745 150.758 543.159 152.209C538.333 152.762 538.697 152.401 534.958 155.426L534.726 155.815C534.943 157.092 534.89 157.353 534.695 158.64L533.73 159.293C530.808 157.13 524.188 153.201 527.194 149.359C529.047 148.198 531.056 148.421 533.244 148.422Z" fill="#FAF8F8"/>
<path d="M157.054 279.616C160.763 278.353 161.577 276.747 164.242 273.781L165.027 273.804C164.771 274.909 164.1 275.474 163.334 276.343L164.096 276.44C165.261 278.535 165.306 279.871 167.101 281.099L168.482 281.355C168.994 284.005 164.858 287.481 161.874 286.025C158.692 284.471 158.316 282.552 157.054 279.616Z" fill="#FAF8F8"/>
<path d="M356.926 275.819C356.858 277.702 357.193 275.998 358.383 277.388L356.821 278.873C356.759 279.448 356.633 280.781 356.374 281.222C355.402 282.88 349.762 281.362 348.561 280.542C346.802 276.897 350.224 271.986 352.94 269.664L353.256 270.349L352.412 272.447C352.861 272.593 356.771 275.642 356.926 275.819Z" fill="#FAF8F8"/>
<path d="M164.096 276.44C166.426 275.946 173.491 274.083 175.22 275.208C173.331 278.012 168.976 276.085 166.929 278.066C168.111 278.529 169.296 278.473 170.58 278.525L170.714 279.072C169.598 279.598 167.649 280.247 167.101 281.099C165.306 279.871 165.261 278.535 164.096 276.44Z" fill="#EEDCD6"/>
<path d="M352.412 272.446C355.451 271.596 360.661 269.949 363.61 269.803L364.248 270.31C362.401 272.795 357.872 272.189 356.124 273.72C357.596 273.761 359.069 273.812 360.54 273.875L360.371 274.509C359.055 275.096 358.329 275.436 356.926 275.819C356.771 275.642 352.861 272.593 352.412 272.446Z" fill="#EEDCD6"/>
<path d="M140.777 158.881L140.445 158.209L139.2 157.848L139.236 157.252C142.612 157.17 146.376 156.813 149.363 158.471L149.137 159.005C146.596 159.657 143.447 159.135 140.777 158.881Z" fill="#EEDCD6"/>
<path d="M98.0818 26.3364C99.8447 27.0463 103.762 28.6923 105.294 29.7492L105.3 30.8178L106.177 30.7735C103.882 31.4049 99.8204 29.2624 97.6172 28.2745L98.0818 26.3364Z" fill="#EEDCD6"/>
<path d="M399.55 223.457C401.932 222.062 406.924 221.068 409.468 222.294C407.849 224.022 403.849 223.12 400.164 225.019L399.55 223.457Z" fill="#E7EAE3"/>
<path d="M189.449 240.863C191.684 240.43 193.674 240.191 195.922 239.92L196.745 241.156L196.493 239.915L196.787 239.922L197.413 240.899C194.336 242.473 191.516 242.238 188.203 242.943L189.449 240.863Z" fill="#E7EAE3"/>
</g>
</g>
<defs>
<clipPath id="clip0_188_14">
<rect width="1080" height="472" fill="white"/>
</clipPath>
</defs>
</svg>